<svg width="750" height="500" viewBox="0 0 750 500" fill="none" xmlns="http://www.w3.org/2000/svg">
<path d="M584.818 81.5703H533.488V215.93H584.818V81.5703Z" fill="#EBEBEB"/>
<path d="M584.83 81.5703H559.16V215.93H584.83V81.5703Z" fill="#E0E0E0"/>
<path d="M557.489 65.5996H539.359V81.5696H557.489V65.5996Z" fill="#EBEBEB"/>
<path d="M557.48 65.5996H553.16V81.5696H557.48V65.5996Z" fill="#E0E0E0"/>
<path d="M586.329 80.6396H529.219V81.5696H586.329V80.6396Z" fill="#E0E0E0"/>
<path d="M547.979 88.5303H543.629V97.6903H547.979V88.5303Z" fill="white"/>
<path d="M559.158 101.29C559.158 101.39 553.408 101.47 546.328 101.47C539.248 101.47 533.488 101.39 533.488 101.29C533.488 101.19 539.238 101.12 546.328 101.12C553.418 101.12 559.158 101.2 559.158 101.29Z" fill="#E0E0E0"/>
<path d="M573.87 88.5303H569.52V97.6903H573.87V88.5303Z" fill="#F5F5F5"/>
<path d="M585.049 101.29C585.049 101.39 579.299 101.47 572.219 101.47C565.139 101.47 559.379 101.39 559.379 101.29C559.379 101.19 565.129 101.12 572.219 101.12C579.309 101.12 585.049 101.2 585.049 101.29Z" fill="#EBEBEB"/>
<path d="M573.87 106.72H569.52V115.88H573.87V106.72Z" fill="#F5F5F5"/>
<path d="M585.049 119.48C585.049 119.58 579.299 119.66 572.219 119.66C565.139 119.66 559.379 119.58 559.379 119.48C559.379 119.38 565.129 119.31 572.219 119.31C579.309 119.31 585.049 119.39 585.049 119.48Z" fill="#EBEBEB"/>
<path d="M573.87 125.46H569.52V134.62H573.87V125.46Z" fill="#F5F5F5"/>
<path d="M585.049 138.22C585.049 138.32 579.299 138.4 572.219 138.4C565.139 138.4 559.379 138.32 559.379 138.22C559.379 138.12 565.129 138.05 572.219 138.05C579.309 138.05 585.049 138.12 585.049 138.22Z" fill="#EBEBEB"/>
<path d="M573.87 144.2H569.52V153.36H573.87V144.2Z" fill="#F5F5F5"/>
<path d="M585.049 157C585.049 157.1 579.299 157.18 572.219 157.18C565.139 157.18 559.379 157.1 559.379 157C559.379 156.9 565.129 156.83 572.219 156.83C579.309 156.83 585.049 156.86 585.049 157Z" fill="#EBEBEB"/>
<path d="M573.87 162.41H569.52V171.57H573.87V162.41Z" fill="#F5F5F5"/>
<path d="M585.049 175.16C585.049 175.26 579.299 175.34 572.219 175.34C565.139 175.34 559.379 175.26 559.379 175.16C559.379 175.06 565.129 174.99 572.219 174.99C579.309 174.99 585.049 175.07 585.049 175.16Z" fill="#EBEBEB"/>
<path d="M573.87 180.68H569.52V189.84H573.87V180.68Z" fill="#F5F5F5"/>
<path d="M573.87 199.2H569.52V208.36H573.87V199.2Z" fill="#F5F5F5"/>
<path d="M585.049 193.44C585.049 193.54 579.299 193.62 572.219 193.62C565.139 193.62 559.379 193.54 559.379 193.44C559.379 193.34 565.129 193.27 572.219 193.27C579.309 193.27 585.049 193.34 585.049 193.44Z" fill="#EBEBEB"/>
<path d="M547.979 107H543.629V116.16H547.979V107Z" fill="white"/>
<path d="M559.158 119.76C559.158 119.86 553.408 119.93 546.328 119.93C539.248 119.93 533.488 119.86 533.488 119.76C533.488 119.66 539.238 119.58 546.328 119.58C553.418 119.58 559.158 119.66 559.158 119.76Z" fill="#E0E0E0"/>
<path d="M547.979 125.47H543.629V134.63H547.979V125.47Z" fill="white"/>
<path d="M559.158 138.23C559.158 138.32 553.408 138.4 546.328 138.4C539.248 138.4 533.488 138.32 533.488 138.23C533.488 138.14 539.238 138.05 546.328 138.05C553.418 138.05 559.158 138.13 559.158 138.23Z" fill="#E0E0E0"/>
<path d="M547.979 143.94H543.629V153.1H547.979V143.94Z" fill="white"/>
<path d="M559.158 156.7C559.158 156.79 553.408 156.87 546.328 156.87C539.248 156.87 533.488 156.79 533.488 156.7C533.488 156.61 539.238 156.52 546.328 156.52C553.418 156.52 559.158 156.6 559.158 156.7Z" fill="#E0E0E0"/>
<path d="M547.979 162.41H543.629V171.57H547.979V162.41Z" fill="white"/>
<path d="M559.158 175.16C559.158 175.26 553.408 175.34 546.328 175.34C539.248 175.34 533.488 175.26 533.488 175.16C533.488 175.06 539.238 174.99 546.328 174.99C553.418 174.99 559.158 175.07 559.158 175.16Z" fill="#E0E0E0"/>
<path d="M547.979 180.87H543.629V190.03H547.979V180.87Z" fill="white"/>
<path d="M559.158 193.63C559.158 193.73 553.408 193.81 546.328 193.81C539.248 193.81 533.488 193.73 533.488 193.63C533.488 193.53 539.238 193.46 546.328 193.46C553.418 193.46 559.158 193.54 559.158 193.63Z" fill="#E0E0E0"/>
<path d="M547.979 199.34H543.629V208.5H547.979V199.34Z" fill="white"/>
<path d="M462.149 233.62H401.539V348.65H462.149V233.62Z" fill="#E0E0E0"/>
<path d="M462.16 233.62H433.74V348.65H462.16V233.62Z" fill="#EBEBEB"/>
<path d="M419.7 244.44H414.25V257.68H419.7V244.44Z" fill="#F5F5F5"/>
<path d="M419.7 296.26H414.25V309.5H419.7V296.26Z" fill="#F5F5F5"/>
<path d="M433.739 262.88C433.739 262.99 426.529 263.09 417.639 263.09C408.749 263.09 401.539 262.99 401.539 262.88C401.539 262.77 408.749 262.67 417.639 262.67C426.529 262.67 433.739 262.77 433.739 262.88Z" fill="#F5F5F5"/>
<path d="M419.7 270.55H414.25V283.79H419.7V270.55Z" fill="#F5F5F5"/>
<path d="M433.739 289C433.739 289.11 426.529 289.2 417.639 289.2C408.749 289.2 401.539 289.11 401.539 289C401.539 288.89 408.749 288.79 417.639 288.79C426.529 288.79 433.739 288.87 433.739 289Z" fill="#F5F5F5"/>
<path d="M445.22 244.44H439.77V257.68H445.22V244.44Z" fill="#E0E0E0"/>
<path d="M457.04 244.44H451.59V257.68H457.04V244.44Z" fill="#E0E0E0"/>
<path d="M445.22 269.57H439.77V282.81H445.22V269.57Z" fill="#E0E0E0"/>
<path d="M457.04 269.57H451.59V282.81H457.04V269.57Z" fill="#E0E0E0"/>
<path d="M445.22 294.69H439.77V307.93H445.22V294.69Z" fill="#E0E0E0"/>
<path d="M457.04 294.69H451.59V307.93H457.04V294.69Z" fill="#E0E0E0"/>
<path d="M466.71 230.84H396.99V233.72H466.71V230.84Z" fill="#E0E0E0"/>
<path d="M462.578 234C462.578 234.12 449.028 234.21 432.318 234.21C415.608 234.21 402.068 234.12 402.068 234C402.068 233.88 415.608 233.79 432.318 233.79C449.028 233.79 462.578 233.88 462.578 234Z" fill="#EBEBEB"/>
<path d="M689.549 150.76H637.729V315H689.549V150.76Z" fill="#F5F5F5"/>
<path d="M689.55 150.76H663.64V314.55H689.55V150.76Z" fill="#EBEBEB"/>
<path d="M661.949 134.63H643.649V150.75H661.949V134.63Z" fill="#F5F5F5"/>
<path d="M661.949 134.63H657.589V150.75H661.949V134.63Z" fill="#EBEBEB"/>
<path d="M633.409 150.76V149.82H691.069V150.76" fill="#E0E0E0"/>
<path d="M652.349 157.79H647.959V167.04H652.349V157.79Z" fill="#FAFAFA"/>
<path d="M663.639 170.67C663.639 170.77 657.839 170.84 650.689 170.84C643.539 170.84 637.689 170.77 637.689 170.67C637.689 170.57 643.489 170.49 650.689 170.49C657.889 170.49 663.639 170.57 663.639 170.67Z" fill="#E0E0E0"/>
<path d="M678.49 157.79H674.1V167.04H678.49V157.79Z" fill="#E0E0E0"/>
<path d="M689.779 170.67C689.779 170.77 683.979 170.84 676.779 170.84C669.579 170.84 663.779 170.77 663.779 170.67C663.779 170.57 669.579 170.49 676.779 170.49C683.979 170.49 689.779 170.57 689.779 170.67Z" fill="#E0E0E0"/>
<path d="M678.49 176.15H674.1V185.4H678.49V176.15Z" fill="#E0E0E0"/>
<path d="M689.779 189C689.779 189.1 683.979 189.18 676.779 189.18C669.579 189.18 663.779 189.1 663.779 189C663.779 188.9 669.579 188.83 676.779 188.83C683.979 188.83 689.779 188.94 689.779 189Z" fill="#E0E0E0"/>
<path d="M678.49 195.07H674.1V204.32H678.49V195.07Z" fill="#E0E0E0"/>
<path d="M689.779 208C689.779 208.1 683.979 208.18 676.779 208.18C669.579 208.18 663.779 208.1 663.779 208C663.779 207.9 669.579 207.83 676.779 207.83C683.979 207.83 689.779 207.85 689.779 208Z" fill="#E0E0E0"/>
<path d="M678.49 213.99H674.1V223.24H678.49V213.99Z" fill="#E0E0E0"/>
<path d="M689.779 226.87C689.779 226.97 683.979 227.05 676.779 227.05C669.579 227.05 663.779 226.97 663.779 226.87C663.779 226.77 669.579 226.69 676.779 226.69C683.979 226.69 689.779 226.77 689.779 226.87Z" fill="#E0E0E0"/>
<path d="M678.49 232.37H674.1V241.62H678.49V232.37Z" fill="#E0E0E0"/>
<path d="M689.779 245.25C689.779 245.35 683.979 245.42 676.779 245.42C669.579 245.42 663.779 245.35 663.779 245.25C663.779 245.15 669.579 245.07 676.779 245.07C683.979 245.07 689.779 245.15 689.779 245.25Z" fill="#E0E0E0"/>
<path d="M678.49 250.82H674.1V260.07H678.49V250.82Z" fill="#E0E0E0"/>
<path d="M678.49 269.51H674.1V278.76H678.49V269.51Z" fill="#E0E0E0"/>
<path d="M689.779 263.7C689.779 263.8 683.979 263.88 676.779 263.88C669.579 263.88 663.779 263.8 663.779 263.7C663.779 263.6 669.579 263.52 676.779 263.52C683.979 263.52 689.779 263.6 689.779 263.7Z" fill="#E0E0E0"/>
<path d="M652.349 176.43H647.959V185.68H652.349V176.43Z" fill="#FAFAFA"/>
<path d="M663.639 189.31C663.639 189.41 657.839 189.49 650.689 189.49C643.539 189.49 637.689 189.41 637.689 189.31C637.689 189.21 643.489 189.14 650.689 189.14C657.889 189.14 663.639 189.22 663.639 189.31Z" fill="#E0E0E0"/>
<path d="M652.349 195.08H647.959V204.33H652.349V195.08Z" fill="#FAFAFA"/>
<path d="M663.639 208C663.639 208.1 657.839 208.17 650.689 208.17C643.539 208.17 637.689 208.1 637.689 208C637.689 207.9 643.489 207.82 650.689 207.82C657.889 207.82 663.639 207.86 663.639 208Z" fill="#E0E0E0"/>
<path d="M652.349 213.72H647.959V222.97H652.349V213.72Z" fill="#FAFAFA"/>
<path d="M663.639 226.6C663.639 226.7 657.839 226.78 650.689 226.78C643.539 226.78 637.689 226.7 637.689 226.6C637.689 226.5 643.489 226.43 650.689 226.43C657.889 226.43 663.639 226.51 663.639 226.6Z" fill="#E0E0E0"/>
<path d="M652.349 232.37H647.959V241.62H652.349V232.37Z" fill="#FAFAFA"/>
<path d="M663.639 245.25C663.639 245.35 657.839 245.42 650.689 245.42C643.539 245.42 637.689 245.35 637.689 245.25C637.689 245.15 643.489 245.07 650.689 245.07C657.889 245.07 663.639 245.15 663.639 245.25Z" fill="#E0E0E0"/>
<path d="M652.349 251.01H647.959V260.26H652.349V251.01Z" fill="#FAFAFA"/>
<path d="M663.639 263.89C663.639 263.99 657.839 264.07 650.689 264.07C643.539 264.07 637.689 263.99 637.689 263.89C637.689 263.79 643.489 263.72 650.689 263.72C657.889 263.72 663.639 263.79 663.639 263.89Z" fill="#E0E0E0"/>
<path d="M652.349 269.66H647.959V278.91H652.349V269.66Z" fill="#FAFAFA"/>
<path d="M723.019 237.6H637.959V349.78H723.019V237.6Z" fill="#EBEBEB"/>
<path d="M723.009 237.6H683.129V349.78H723.009V237.6Z" fill="#E0E0E0"/>
<path d="M663.439 252.79H655.789V271.37H663.439V252.79Z" fill="#F5F5F5"/>
<path d="M663.439 325.5H655.789V344.08H663.439V325.5Z" fill="#F5F5F5"/>
<path d="M683.129 278.66C683.129 278.87 673.019 279.04 660.539 279.04C648.059 279.04 637.959 278.87 637.959 278.66C637.959 278.45 648.069 278.28 660.539 278.28C673.009 278.28 683.129 278.45 683.129 278.66Z" fill="#F5F5F5"/>
<path d="M663.439 289.42H655.789V308H663.439V289.42Z" fill="#F5F5F5"/>
<path d="M683.129 315.29C683.129 315.5 673.019 315.67 660.539 315.67C648.059 315.67 637.999 315.5 637.999 315.29C637.999 315.08 648.109 314.92 660.579 314.92C673.049 314.92 683.129 315.09 683.129 315.29Z" fill="#F5F5F5"/>
<path d="M699.25 252.79H691.6V271.37H699.25V252.79Z" fill="#F5F5F5"/>
<path d="M715.839 252.79H708.189V271.37H715.839V252.79Z" fill="#F5F5F5"/>
<path d="M699.25 288.04H691.6V306.62H699.25V288.04Z" fill="#F5F5F5"/>
<path d="M715.839 288.04H708.189V306.62H715.839V288.04Z" fill="#F5F5F5"/>
<path d="M699.25 323.3H691.6V341.88H699.25V323.3Z" fill="#F5F5F5"/>
<path d="M715.839 323.3H708.189V341.88H715.839V323.3Z" fill="#F5F5F5"/>
<path d="M729.4 233.69H631.56V237.74H729.4V233.69Z" fill="#E0E0E0"/>
<path d="M723.609 238.12C723.609 238.33 704.609 238.5 681.149 238.5C657.689 238.5 638.689 238.33 638.689 238.12C638.689 237.91 657.689 237.74 681.149 237.74C704.609 237.74 723.609 237.91 723.609 238.12Z" fill="#EBEBEB"/>
<path d="M634.089 349.18H548.359L547.979 213.69H633.719L634.089 349.18Z" fill="#EBEBEB"/>
<path d="M633.72 213.69H590.85V349.19H633.72V213.69Z" fill="#E0E0E0"/>
<path d="M588.039 187.01H557.77V213.68H588.039V187.01Z" fill="#EBEBEB"/>
<path d="M588.05 187.01H580.83V213.68H588.05V187.01Z" fill="#E0E0E0"/>
<path d="M636.23 212.13H540.84V213.69H636.23V212.13Z" fill="#E0E0E0"/>
<path d="M572.17 225.32H564.91V240.62H572.17V225.32Z" fill="white"/>
<path d="M590.849 246.63C590.849 246.79 581.249 246.92 569.419 246.92C557.589 246.92 547.979 246.79 547.979 246.63C547.979 246.47 557.579 246.34 569.419 246.34C581.259 246.34 590.849 246.47 590.849 246.63Z" fill="#E0E0E0"/>
<path d="M615.408 225.32H608.148V240.62H615.408V225.32Z" fill="#F5F5F5"/>
<path d="M634.089 246.63C634.089 246.79 624.489 246.92 612.659 246.92C600.829 246.92 591.219 246.79 591.219 246.63C591.219 246.47 600.819 246.34 612.659 246.34C624.499 246.34 634.089 246.47 634.089 246.63Z" fill="#EBEBEB"/>
<path d="M615.408 255.7H608.148V271H615.408V255.7Z" fill="#F5F5F5"/>
<path d="M634.089 277C634.089 277.16 624.489 277.29 612.659 277.29C600.829 277.29 591.219 277.16 591.219 277C591.219 276.84 600.819 276.71 612.659 276.71C624.499 276.71 634.089 276.85 634.089 277Z" fill="#EBEBEB"/>
<path d="M615.408 287H608.148V302.3H615.408V287Z" fill="#F5F5F5"/>
<path d="M634.089 308.31C634.089 308.47 624.489 308.6 612.659 308.6C600.829 308.6 591.219 308.47 591.219 308.31C591.219 308.15 600.819 308.01 612.659 308.01C624.499 308.01 634.089 308.15 634.089 308.31Z" fill="#EBEBEB"/>
<path d="M615.408 318.3H608.148V333.6H615.408V318.3Z" fill="#F5F5F5"/>
<path d="M634.089 339.6C634.089 339.76 624.489 339.9 612.659 339.9C600.829 339.9 591.219 339.76 591.219 339.6C591.219 339.44 600.819 339.31 612.659 339.31C624.499 339.31 634.089 339.44 634.089 339.6Z" fill="#EBEBEB"/>
<path d="M572.17 256.17H564.91V271.47H572.17V256.17Z" fill="white"/>
<path d="M590.849 277.47C590.849 277.63 581.249 277.77 569.419 277.77C557.589 277.77 547.979 277.63 547.979 277.47C547.979 277.31 557.579 277.18 569.419 277.18C581.259 277.18 590.849 277.31 590.849 277.47Z" fill="#E0E0E0"/>
<path d="M572.17 287.01H564.91V302.31H572.17V287.01Z" fill="white"/>
<path d="M590.849 308.32C590.849 308.48 581.249 308.61 569.419 308.61C557.589 308.61 547.979 308.48 547.979 308.32C547.979 308.16 557.579 308.02 569.419 308.02C581.259 308.02 590.849 308.16 590.849 308.32Z" fill="#E0E0E0"/>
<path d="M572.17 317.85H564.91V333.15H572.17V317.85Z" fill="white"/>
<path d="M590.849 339.16C590.849 339.32 581.249 339.45 569.419 339.45C557.589 339.45 547.979 339.32 547.979 339.16C547.979 339 557.579 338.87 569.419 338.87C581.259 338.87 590.849 339 590.849 339.16Z" fill="#E0E0E0"/>
<path d="M528.34 99.2998H457.92V349.43H528.34V99.2998Z" fill="#EBEBEB"/>
<path d="M469.909 107.93H463.639V121.15H469.909V107.93Z" fill="white"/>
<path d="M483.088 107.93H476.818V121.15H483.088V107.93Z" fill="white"/>
<path d="M496.27 107.93H490V121.15H496.27V107.93Z" fill="white"/>
<path d="M509.44 107.93H503.17V121.15H509.44V107.93Z" fill="white"/>
<path d="M522.62 107.93H516.35V121.15H522.62V107.93Z" fill="white"/>
<path d="M469.909 126.42H463.639V139.64H469.909V126.42Z" fill="white"/>
<path d="M483.088 126.42H476.818V139.64H483.088V126.42Z" fill="white"/>
<path d="M496.27 126.42H490V139.64H496.27V126.42Z" fill="white"/>
<path d="M509.44 126.42H503.17V139.64H509.44V126.42Z" fill="white"/>
<path d="M522.62 126.42H516.35V139.64H522.62V126.42Z" fill="white"/>
<path d="M469.909 144.91H463.639V158.13H469.909V144.91Z" fill="white"/>
<path d="M483.088 144.91H476.818V158.13H483.088V144.91Z" fill="white"/>
<path d="M496.27 144.91H490V158.13H496.27V144.91Z" fill="white"/>
<path d="M509.44 144.91H503.17V158.13H509.44V144.91Z" fill="white"/>
<path d="M522.62 144.91H516.35V158.13H522.62V144.91Z" fill="white"/>
<path d="M469.909 163.41H463.639V176.63H469.909V163.41Z" fill="white"/>
<path d="M483.088 163.41H476.818V176.63H483.088V163.41Z" fill="white"/>
<path d="M496.27 163.41H490V176.63H496.27V163.41Z" fill="white"/>
<path d="M509.44 163.41H503.17V176.63H509.44V163.41Z" fill="white"/>
<path d="M522.62 163.41H516.35V176.63H522.62V163.41Z" fill="white"/>
<path d="M469.909 181.9H463.639V195.12H469.909V181.9Z" fill="white"/>
<path d="M483.088 181.9H476.818V195.12H483.088V181.9Z" fill="white"/>
<path d="M496.27 181.9H490V195.12H496.27V181.9Z" fill="white"/>
<path d="M509.44 181.9H503.17V195.12H509.44V181.9Z" fill="white"/>
<path d="M522.62 181.9H516.35V195.12H522.62V181.9Z" fill="white"/>
<path d="M469.909 200.39H463.639V213.61H469.909V200.39Z" fill="white"/>
<path d="M483.088 200.39H476.818V213.61H483.088V200.39Z" fill="white"/>
<path d="M496.27 200.39H490V213.61H496.27V200.39Z" fill="white"/>
<path d="M509.44 200.39H503.17V213.61H509.44V200.39Z" fill="white"/>
<path d="M522.62 200.39H516.35V213.61H522.62V200.39Z" fill="white"/>
<path d="M469.909 218.89H463.639V232.11H469.909V218.89Z" fill="white"/>
<path d="M483.088 218.89H476.818V232.11H483.088V218.89Z" fill="white"/>
<path d="M496.27 218.89H490V232.11H496.27V218.89Z" fill="white"/>
<path d="M509.44 218.89H503.17V232.11H509.44V218.89Z" fill="white"/>
<path d="M522.62 218.89H516.35V232.11H522.62V218.89Z" fill="white"/>
<path d="M469.909 237.38H463.639V250.6H469.909V237.38Z" fill="white"/>
<path d="M483.088 237.38H476.818V250.6H483.088V237.38Z" fill="white"/>
<path d="M496.27 237.38H490V250.6H496.27V237.38Z" fill="white"/>
<path d="M509.44 237.38H503.17V250.6H509.44V237.38Z" fill="white"/>
<path d="M522.62 237.38H516.35V250.6H522.62V237.38Z" fill="white"/>
<path d="M469.909 255.87H463.639V269.09H469.909V255.87Z" fill="white"/>
<path d="M483.088 255.87H476.818V269.09H483.088V255.87Z" fill="white"/>
<path d="M496.27 255.87H490V269.09H496.27V255.87Z" fill="white"/>
<path d="M509.44 255.87H503.17V269.09H509.44V255.87Z" fill="white"/>
<path d="M522.62 255.87H516.35V269.09H522.62V255.87Z" fill="white"/>
<path d="M469.909 274.36H463.639V287.58H469.909V274.36Z" fill="white"/>
<path d="M483.088 274.36H476.818V287.58H483.088V274.36Z" fill="white"/>
<path d="M496.27 274.36H490V287.58H496.27V274.36Z" fill="white"/>
<path d="M509.44 274.36H503.17V287.58H509.44V274.36Z" fill="white"/>
<path d="M522.62 274.36H516.35V287.58H522.62V274.36Z" fill="white"/>
<path d="M469.909 292.86H463.639V306.08H469.909V292.86Z" fill="white"/>
<path d="M483.088 292.86H476.818V306.08H483.088V292.86Z" fill="white"/>
<path d="M496.27 292.86H490V306.08H496.27V292.86Z" fill="white"/>
<path d="M509.44 292.86H503.17V306.08H509.44V292.86Z" fill="white"/>
<path d="M522.62 292.86H516.35V306.08H522.62V292.86Z" fill="white"/>
<path d="M469.909 311.35H463.639V324.57H469.909V311.35Z" fill="white"/>
<path d="M483.088 311.35H476.818V324.57H483.088V311.35Z" fill="white"/>
<path d="M496.27 311.35H490V324.57H496.27V311.35Z" fill="white"/>
<path d="M509.44 311.35H503.17V324.57H509.44V311.35Z" fill="white"/>
<path d="M522.62 311.35H516.35V324.57H522.62V311.35Z" fill="white"/>
<path d="M469.909 328.82H463.639V342.04H469.909V328.82Z" fill="white"/>
<path d="M483.088 328.82H476.818V342.04H483.088V328.82Z" fill="white"/>
<path d="M496.27 328.82H490V342.04H496.27V328.82Z" fill="white"/>
<path d="M509.44 328.82H503.17V342.04H509.44V328.82Z" fill="white"/>
<path d="M522.62 328.82H516.35V342.04H522.62V328.82Z" fill="white"/>
<path d="M559.1 99.2998H528.34V349.43H559.1V99.2998Z" fill="#E0E0E0"/>
<path d="M496.27 107.93H490V121.15H496.27V107.93Z" fill="white"/>
<path d="M509.44 107.93H503.17V121.15H509.44V107.93Z" fill="white"/>
<path d="M522.62 107.93H516.35V121.15H522.62V107.93Z" fill="white"/>
<path d="M496.27 126.42H490V139.64H496.27V126.42Z" fill="white"/>
<path d="M509.44 126.42H503.17V139.64H509.44V126.42Z" fill="white"/>
<path d="M522.62 126.42H516.35V139.64H522.62V126.42Z" fill="white"/>
<path d="M496.27 144.91H490V158.13H496.27V144.91Z" fill="white"/>
<path d="M509.44 144.91H503.17V158.13H509.44V144.91Z" fill="white"/>
<path d="M522.62 144.91H516.35V158.13H522.62V144.91Z" fill="white"/>
<path d="M496.27 163.41H490V176.63H496.27V163.41Z" fill="white"/>
<path d="M509.44 163.41H503.17V176.63H509.44V163.41Z" fill="white"/>
<path d="M522.62 163.41H516.35V176.63H522.62V163.41Z" fill="white"/>
<path d="M496.27 181.9H490V195.12H496.27V181.9Z" fill="white"/>
<path d="M509.44 181.9H503.17V195.12H509.44V181.9Z" fill="white"/>
<path d="M522.62 181.9H516.35V195.12H522.62V181.9Z" fill="white"/>
<path d="M496.27 200.39H490V213.61H496.27V200.39Z" fill="white"/>
<path d="M509.44 200.39H503.17V213.61H509.44V200.39Z" fill="white"/>
<path d="M522.62 200.39H516.35V213.61H522.62V200.39Z" fill="white"/>
<path d="M496.27 218.89H490V232.11H496.27V218.89Z" fill="white"/>
<path d="M509.44 218.89H503.17V232.11H509.44V218.89Z" fill="white"/>
<path d="M522.62 218.89H516.35V232.11H522.62V218.89Z" fill="white"/>
<path d="M496.27 237.38H490V250.6H496.27V237.38Z" fill="white"/>
<path d="M509.44 237.38H503.17V250.6H509.44V237.38Z" fill="white"/>
<path d="M522.62 237.38H516.35V250.6H522.62V237.38Z" fill="white"/>
<path d="M496.27 255.87H490V269.09H496.27V255.87Z" fill="white"/>
<path d="M509.44 255.87H503.17V269.09H509.44V255.87Z" fill="white"/>
<path d="M522.62 255.87H516.35V269.09H522.62V255.87Z" fill="white"/>
<path d="M496.27 274.36H490V287.58H496.27V274.36Z" fill="white"/>
<path d="M509.44 274.36H503.17V287.58H509.44V274.36Z" fill="white"/>
<path d="M522.62 274.36H516.35V287.58H522.62V274.36Z" fill="white"/>
<path d="M496.27 292.86H490V306.08H496.27V292.86Z" fill="white"/>
<path d="M509.44 292.86H503.17V306.08H509.44V292.86Z" fill="white"/>
<path d="M522.62 292.86H516.35V306.08H522.62V292.86Z" fill="white"/>
<path d="M496.27 311.35H490V324.57H496.27V311.35Z" fill="white"/>
<path d="M509.44 311.35H503.17V324.57H509.44V311.35Z" fill="white"/>
<path d="M522.62 311.35H516.35V324.57H522.62V311.35Z" fill="white"/>
<path d="M496.27 328.82H490V342.04H496.27V328.82Z" fill="white"/>
<path d="M509.44 328.82H503.17V342.04H509.44V328.82Z" fill="white"/>
<path d="M522.62 328.82H516.35V342.04H522.62V328.82Z" fill="white"/>
<path d="M541.569 107.93H535.299V121.15H541.569V107.93Z" fill="#EBEBEB"/>
<path d="M554.749 107.93H548.479V121.15H554.749V107.93Z" fill="#EBEBEB"/>
<path d="M541.569 126.42H535.299V139.64H541.569V126.42Z" fill="#EBEBEB"/>
<path d="M554.749 126.42H548.479V139.64H554.749V126.42Z" fill="#EBEBEB"/>
<path d="M541.569 144.91H535.299V158.13H541.569V144.91Z" fill="#EBEBEB"/>
<path d="M554.749 144.91H548.479V158.13H554.749V144.91Z" fill="#EBEBEB"/>
<path d="M541.569 163.41H535.299V176.63H541.569V163.41Z" fill="#EBEBEB"/>
<path d="M554.749 163.41H548.479V176.63H554.749V163.41Z" fill="#EBEBEB"/>
<path d="M541.569 181.9H535.299V195.12H541.569V181.9Z" fill="#EBEBEB"/>
<path d="M554.749 181.9H548.479V195.12H554.749V181.9Z" fill="#EBEBEB"/>
<path d="M541.569 200.39H535.299V213.61H541.569V200.39Z" fill="#EBEBEB"/>
<path d="M554.749 200.39H548.479V213.61H554.749V200.39Z" fill="#EBEBEB"/>
<path d="M541.569 218.89H535.299V232.11H541.569V218.89Z" fill="#EBEBEB"/>
<path d="M554.749 218.89H548.479V232.11H554.749V218.89Z" fill="#EBEBEB"/>
<path d="M541.569 237.38H535.299V250.6H541.569V237.38Z" fill="#EBEBEB"/>
<path d="M554.749 237.38H548.479V250.6H554.749V237.38Z" fill="#EBEBEB"/>
<path d="M541.569 255.87H535.299V269.09H541.569V255.87Z" fill="#EBEBEB"/>
<path d="M554.749 255.87H548.479V269.09H554.749V255.87Z" fill="#EBEBEB"/>
<path d="M541.569 274.36H535.299V287.58H541.569V274.36Z" fill="#EBEBEB"/>
<path d="M554.749 274.36H548.479V287.58H554.749V274.36Z" fill="#EBEBEB"/>
<path d="M541.569 292.86H535.299V306.08H541.569V292.86Z" fill="#EBEBEB"/>
<path d="M554.749 292.86H548.479V306.08H554.749V292.86Z" fill="#EBEBEB"/>
<path d="M541.569 311.35H535.299V324.57H541.569V311.35Z" fill="#EBEBEB"/>
<path d="M554.749 311.35H548.479V324.57H554.749V311.35Z" fill="#EBEBEB"/>
<path d="M541.569 328.82H535.299V342.04H541.569V328.82Z" fill="#EBEBEB"/>
<path d="M554.749 328.82H548.479V342.04H554.749V328.82Z" fill="#EBEBEB"/>
<path d="M617.539 158.35C617.819 158.35 618.049 164.27 618.049 171.58C618.049 178.89 617.819 184.82 617.539 184.82C617.259 184.82 617.02 178.89 617.02 171.58C617.02 164.27 617.249 158.35 617.539 158.35Z" fill="#E0E0E0"/>
<path d="M643.859 186.88L570.039 207.83V349.78H643.859V186.88Z" fill="#E0E0E0"/>
<path d="M581.109 204.61V179.43H626.559V191.71L581.109 204.61Z" fill="#E0E0E0"/>
<path d="M575.67 209.24L576.25 339.77H636.3V192.02L575.67 209.24Z" fill="white"/>
<path d="M591.899 342.75C591.619 342.75 591.389 311.42 591.389 272.75C591.389 234.08 591.619 202.75 591.899 202.75C592.179 202.75 592.419 234.07 592.419 272.75C592.419 311.43 592.189 342.75 591.899 342.75Z" fill="#E0E0E0"/>
<path d="M617.139 342.75C616.859 342.75 616.619 309.68 616.619 268.89C616.619 228.1 616.859 195.04 617.139 195.04C617.419 195.04 617.659 228.1 617.659 268.89C617.659 309.68 617.429 342.75 617.139 342.75Z" fill="#E0E0E0"/>
<path d="M640.438 229.17C640.438 229.45 625.438 229.68 607.048 229.68C588.658 229.68 573.648 229.45 573.648 229.17C573.648 228.89 588.648 228.65 607.048 228.65C625.448 228.65 640.438 228.88 640.438 229.17Z" fill="#E0E0E0"/>
<path d="M639.82 269.11C639.82 269.4 624.82 269.63 606.42 269.63C588.02 269.63 573 269.4 573 269.11C573 268.82 588 268.6 606.39 268.6C624.78 268.6 639.82 268.83 639.82 269.11Z" fill="#E0E0E0"/>
<path d="M643.559 309.37C643.559 309.66 628.049 309.89 608.919 309.89C589.789 309.89 574.279 309.66 574.279 309.37C574.279 309.08 589.789 308.86 608.919 308.86C628.049 308.86 643.559 309.09 643.559 309.37Z" fill="#E0E0E0"/>
<path d="M643.579 186.88C643.659 187.15 627.319 192.03 607.089 197.77C586.859 203.51 570.399 207.94 570.319 207.67C570.239 207.4 586.579 202.52 606.809 196.78C627.039 191.04 643.499 186.6 643.579 186.88Z" fill="#E0E0E0"/>
<path d="M595.279 259C595.079 258.8 598.709 254.84 603.389 250.16C608.069 245.48 612.019 241.85 612.219 242.06C612.419 242.27 608.799 246.21 604.119 250.89C599.439 255.57 595.479 259.2 595.279 259Z" fill="#E0E0E0"/>
<path d="M606.558 242.93C606.758 243.14 605.448 244.7 603.638 246.42C601.828 248.14 600.208 249.42 600.008 249.17C599.808 248.92 601.118 247.4 602.928 245.67C604.738 243.94 606.368 242.73 606.558 242.93Z" fill="#E0E0E0"/>
<path d="M610.73 288.119C610.93 288.319 607.83 291.809 603.8 295.909C599.77 300.009 596.34 303.169 596.14 302.969C595.94 302.769 599.04 299.289 603.07 295.189C607.1 291.089 610.52 287.929 610.73 288.119Z" fill="#E0E0E0"/>
<path d="M605.059 289.89C605.269 290.08 604.239 291.57 602.759 293.21C601.279 294.85 599.909 296.02 599.699 295.83C599.489 295.64 600.509 294.15 601.989 292.51C603.469 290.87 604.849 289.7 605.059 289.89Z" fill="#E0E0E0"/>
<path d="M630.559 209.27C630.769 209.45 629.229 211.61 627.119 214.09C625.009 216.57 623.119 218.42 622.889 218.24C622.659 218.06 624.209 215.9 626.329 213.42C628.449 210.94 630.339 209.08 630.559 209.27Z" fill="#E0E0E0"/>
<path d="M628.839 206.64C629.049 206.84 627.949 208.39 626.389 210.11C624.829 211.83 623.389 213.11 623.179 212.88C622.969 212.65 624.069 211.14 625.629 209.42C627.189 207.7 628.629 206.45 628.839 206.64Z" fill="#E0E0E0"/>
<path d="M586.359 323.52C586.589 323.68 585.649 325.41 584.249 327.38C582.849 329.35 581.539 330.82 581.249 330.65C580.959 330.48 581.959 328.76 583.359 326.78C584.759 324.8 586.129 323.35 586.359 323.52Z" fill="#E0E0E0"/>
<path d="M584.58 321.14C584.78 321.33 583.95 322.56 582.72 323.87C581.49 325.18 580.32 326.09 580.12 325.87C579.92 325.65 580.74 324.46 581.97 323.14C583.2 321.82 584.37 320.94 584.58 321.14Z" fill="#E0E0E0"/>
<path d="M314.369 173.16H269.049V316.79H314.369V173.16Z" fill="#F5F5F5"/>
<path d="M314.369 173.16H291.709V316.4H314.369V173.16Z" fill="#EBEBEB"/>
<path d="M290.219 159.05H274.219V173.15H290.219V159.05Z" fill="#F5F5F5"/>
<path d="M290.22 159.05H286.41V173.15H290.22V159.05Z" fill="#EBEBEB"/>
<path d="M265.27 173.16V172.33H315.7V173.16" fill="#E0E0E0"/>
<path d="M281.84 179.31H278V187.4H281.84V179.31Z" fill="#FAFAFA"/>
<path d="M291.709 190.57C291.709 190.65 286.639 190.72 280.379 190.72C274.119 190.72 269.049 190.65 269.049 190.57C269.049 190.49 274.119 190.41 280.379 190.41C286.639 190.41 291.709 190.48 291.709 190.57Z" fill="#E0E0E0"/>
<path d="M304.69 179.31H300.85V187.4H304.69V179.31Z" fill="#E0E0E0"/>
<path d="M314.57 190.57C314.57 190.65 309.49 190.72 303.24 190.72C296.99 190.72 291.91 190.65 291.91 190.57C291.91 190.49 296.98 190.41 303.24 190.41C309.5 190.41 314.57 190.48 314.57 190.57Z" fill="#E0E0E0"/>
<path d="M304.69 195.37H300.85V203.46H304.69V195.37Z" fill="#E0E0E0"/>
<path d="M314.57 206.63C314.57 206.71 309.49 206.78 303.24 206.78C296.99 206.78 291.91 206.71 291.91 206.63C291.91 206.55 296.98 206.47 303.24 206.47C309.5 206.47 314.57 206.54 314.57 206.63Z" fill="#E0E0E0"/>
<path d="M304.69 211.91H300.85V220H304.69V211.91Z" fill="#E0E0E0"/>
<path d="M314.57 223.17C314.57 223.26 309.49 223.33 303.24 223.33C296.99 223.33 291.91 223.26 291.91 223.17C291.91 223.08 297 223 303.24 223C309.48 223 314.57 223.09 314.57 223.17Z" fill="#E0E0E0"/>
<path d="M304.69 228.45H300.85V236.54H304.69V228.45Z" fill="#E0E0E0"/>
<path d="M314.57 239.72C314.57 239.8 309.49 239.87 303.24 239.87C296.99 239.87 291.91 239.8 291.91 239.72C291.91 239.64 296.98 239.56 303.24 239.56C309.5 239.56 314.57 239.63 314.57 239.72Z" fill="#E0E0E0"/>
<path d="M304.69 244.52H300.85V252.61H304.69V244.52Z" fill="#E0E0E0"/>
<path d="M314.57 255.79C314.57 255.87 309.49 255.94 303.24 255.94C296.99 255.94 291.91 255.87 291.91 255.79C291.91 255.71 296.98 255.63 303.24 255.63C309.5 255.63 314.57 255.7 314.57 255.79Z" fill="#E0E0E0"/>
<path d="M304.69 260.66H300.85V268.75H304.69V260.66Z" fill="#E0E0E0"/>
<path d="M304.69 277.01H300.85V285.1H304.69V277.01Z" fill="#E0E0E0"/>
<path d="M314.57 271.92C314.57 272.01 309.49 272.08 303.24 272.08C296.99 272.08 291.91 272.01 291.91 271.92C291.91 271.83 296.98 271.77 303.24 271.77C309.5 271.77 314.57 271.84 314.57 271.92Z" fill="#E0E0E0"/>
<path d="M281.84 195.61H278V203.7H281.84V195.61Z" fill="#FAFAFA"/>
<path d="M291.709 206.87C291.709 206.96 286.639 207.03 280.379 207.03C274.119 207.03 269.049 206.96 269.049 206.87C269.049 206.78 274.119 206.72 280.379 206.72C286.639 206.72 291.709 206.79 291.709 206.87Z" fill="#E0E0E0"/>
<path d="M281.84 211.91H278V220H281.84V211.91Z" fill="#FAFAFA"/>
<path d="M291.709 223.18C291.709 223.26 286.639 223.33 280.379 223.33C274.119 223.33 269.049 223.26 269.049 223.18C269.049 223.1 274.119 223.02 280.379 223.02C286.639 223.02 291.709 223.09 291.709 223.18Z" fill="#E0E0E0"/>
<path d="M281.84 228.22H278V236.31H281.84V228.22Z" fill="#FAFAFA"/>
<path d="M291.709 239.48C291.709 239.57 286.639 239.64 280.379 239.64C274.119 239.64 269.049 239.57 269.049 239.48C269.049 239.39 274.119 239.33 280.379 239.33C286.639 239.33 291.709 239.4 291.709 239.48Z" fill="#E0E0E0"/>
<path d="M281.84 244.52H278V252.61H281.84V244.52Z" fill="#FAFAFA"/>
<path d="M291.709 255.79C291.709 255.87 286.639 255.94 280.379 255.94C274.119 255.94 269.049 255.87 269.049 255.79C269.049 255.71 274.119 255.63 280.379 255.63C286.639 255.63 291.709 255.7 291.709 255.79Z" fill="#E0E0E0"/>
<path d="M281.84 260.83H278V268.92H281.84V260.83Z" fill="#FAFAFA"/>
<path d="M291.709 272.09C291.709 272.18 286.639 272.25 280.379 272.25C274.119 272.25 269.049 272.18 269.049 272.09C269.049 272 274.119 271.94 280.379 271.94C286.639 271.94 291.709 272 291.709 272.09Z" fill="#E0E0E0"/>
<path d="M281.84 277.13H278V285.22H281.84V277.13Z" fill="#FAFAFA"/>
<path d="M340.91 236.99H255.85V349.17H340.91V236.99Z" fill="#EBEBEB"/>
<path d="M340.9 236.99H301.02V349.17H340.9V236.99Z" fill="#E0E0E0"/>
<path d="M281.33 252.18H273.68V270.76H281.33V252.18Z" fill="#F5F5F5"/>
<path d="M281.33 324.9H273.68V343.48H281.33V324.9Z" fill="#F5F5F5"/>
<path d="M301 278.05C301 278.26 290.89 278.43 278.42 278.43C265.95 278.43 255.83 278.26 255.83 278.05C255.83 277.84 265.94 277.68 278.42 277.68C290.9 277.68 301 277.85 301 278.05Z" fill="#F5F5F5"/>
<path d="M281.33 288.82H273.68V307.4H281.33V288.82Z" fill="#F5F5F5"/>
<path d="M301 314.69C301 314.9 290.89 315.07 278.42 315.07C265.95 315.07 255.83 314.9 255.83 314.69C255.83 314.48 265.94 314.31 278.42 314.31C290.9 314.31 301 314.48 301 314.69Z" fill="#F5F5F5"/>
<path d="M317.14 252.18H309.49V270.76H317.14V252.18Z" fill="#F5F5F5"/>
<path d="M333.73 252.18H326.08V270.76H333.73V252.18Z" fill="#F5F5F5"/>
<path d="M317.14 287.44H309.49V306.02H317.14V287.44Z" fill="#F5F5F5"/>
<path d="M333.73 287.44H326.08V306.02H333.73V287.44Z" fill="#F5F5F5"/>
<path d="M317.14 322.7H309.49V341.28H317.14V322.7Z" fill="#F5F5F5"/>
<path d="M333.73 322.7H326.08V341.28H333.73V322.7Z" fill="#F5F5F5"/>
<path d="M347.299 233.09H249.459V237.14H347.299V233.09Z" fill="#E0E0E0"/>
<path d="M341.5 237.52C341.5 237.72 322.5 237.89 299.04 237.89C275.58 237.89 256.58 237.72 256.58 237.52C256.58 237.32 275.58 237.14 299.04 237.14C322.5 237.14 341.5 237.31 341.5 237.52Z" fill="#EBEBEB"/>
<path d="M100.259 123.37H39.2285V316.79H100.259V123.37Z" fill="#F5F5F5"/>
<path d="M100.26 123.37H69.75V316.25H100.26V123.37Z" fill="#EBEBEB"/>
<path d="M67.7492 104.38H46.1992V123.37H67.7492V104.38Z" fill="#F5F5F5"/>
<path d="M67.7591 104.38H62.6191V123.37H67.7591V104.38Z" fill="#EBEBEB"/>
<path d="M34.1484 123.37V122.26H102.048V123.37" fill="#E0E0E0"/>
<path d="M56.4493 131.65H51.2793V142.54H56.4493V131.65Z" fill="#FAFAFA"/>
<path d="M69.7485 146.82C69.7485 146.93 62.9185 147.03 54.4885 147.03C46.0585 147.03 39.2285 146.93 39.2285 146.82C39.2285 146.71 46.0585 146.61 54.4885 146.61C62.9185 146.61 69.7485 146.7 69.7485 146.82Z" fill="#E0E0E0"/>
<path d="M87.2286 131.65H82.0586V142.54H87.2286V131.65Z" fill="#E0E0E0"/>
<path d="M100.53 146.82C100.53 146.93 93.7 147.03 85.27 147.03C76.84 147.03 70 146.93 70 146.82C70 146.71 76.83 146.61 85.26 146.61C93.69 146.61 100.53 146.7 100.53 146.82Z" fill="#E0E0E0"/>
<path d="M87.2286 153.28H82.0586V164.17H87.2286V153.28Z" fill="#E0E0E0"/>
<path d="M100.53 168.45C100.53 168.56 93.7 168.65 85.27 168.65C76.84 168.65 70 168.56 70 168.45C70 168.34 76.83 168.24 85.26 168.24C93.69 168.24 100.53 168.33 100.53 168.45Z" fill="#E0E0E0"/>
<path d="M87.2286 175.56H82.0586V186.45H87.2286V175.56Z" fill="#E0E0E0"/>
<path d="M100.53 190.72C100.53 190.84 93.7 190.93 85.27 190.93C76.84 190.93 70 190.84 70 190.72C70 190.6 76.83 190.52 85.26 190.52C93.69 190.52 100.53 190.61 100.53 190.72Z" fill="#E0E0E0"/>
<path d="M87.2286 197.84H82.0586V208.73H87.2286V197.84Z" fill="#E0E0E0"/>
<path d="M100.53 213C100.53 213.12 93.7 213.21 85.27 213.21C76.84 213.21 70 213.12 70 213C70 212.88 76.83 212.8 85.26 212.8C93.69 212.8 100.53 212.89 100.53 213Z" fill="#E0E0E0"/>
<path d="M87.2286 219.479H82.0586V230.369H87.2286V219.479Z" fill="#E0E0E0"/>
<path d="M100.53 234.65C100.53 234.76 93.7 234.85 85.27 234.85C76.84 234.85 70 234.76 70 234.65C70 234.54 76.83 234.44 85.26 234.44C93.69 234.44 100.53 234.53 100.53 234.65Z" fill="#E0E0E0"/>
<path d="M87.2286 241.21H82.0586V252.1H87.2286V241.21Z" fill="#E0E0E0"/>
<path d="M87.2286 263.22H82.0586V274.11H87.2286V263.22Z" fill="#E0E0E0"/>
<path d="M100.53 256.37C100.53 256.49 93.7 256.58 85.27 256.58C76.84 256.58 70 256.49 70 256.37C70 256.25 76.83 256.17 85.26 256.17C93.69 256.17 100.53 256.26 100.53 256.37Z" fill="#E0E0E0"/>
<path d="M56.4493 153.61H51.2793V164.5H56.4493V153.61Z" fill="#FAFAFA"/>
<path d="M69.7485 168.78C69.7485 168.89 62.9185 168.98 54.4885 168.98C46.0585 168.98 39.2285 168.89 39.2285 168.78C39.2285 168.67 46.0585 168.57 54.4885 168.57C62.9185 168.57 69.7485 168.66 69.7485 168.78Z" fill="#E0E0E0"/>
<path d="M56.4493 175.56H51.2793V186.45H56.4493V175.56Z" fill="#FAFAFA"/>
<path d="M69.7485 190.73C69.7485 190.85 62.9185 190.94 54.4885 190.94C46.0585 190.94 39.2285 190.85 39.2285 190.73C39.2285 190.61 46.0585 190.52 54.4885 190.52C62.9185 190.52 69.7485 190.62 69.7485 190.73Z" fill="#E0E0E0"/>
<path d="M56.4493 197.52H51.2793V208.41H56.4493V197.52Z" fill="#FAFAFA"/>
<path d="M69.7485 212.689C69.7485 212.799 62.9185 212.899 54.4885 212.899C46.0585 212.899 39.2285 212.799 39.2285 212.689C39.2285 212.579 46.0585 212.479 54.4885 212.479C62.9185 212.479 69.7485 212.569 69.7485 212.689Z" fill="#E0E0E0"/>
<path d="M56.4493 219.479H51.2793V230.369H56.4493V219.479Z" fill="#FAFAFA"/>
<path d="M69.7485 234.65C69.7485 234.76 62.9185 234.85 54.4885 234.85C46.0585 234.85 39.2285 234.76 39.2285 234.65C39.2285 234.54 46.0585 234.44 54.4885 234.44C62.9185 234.44 69.7485 234.53 69.7485 234.65Z" fill="#E0E0E0"/>
<path d="M56.4493 241.43H51.2793V252.32H56.4493V241.43Z" fill="#FAFAFA"/>
<path d="M69.7485 256.6C69.7485 256.72 62.9185 256.81 54.4885 256.81C46.0585 256.81 39.2285 256.72 39.2285 256.6C39.2285 256.48 46.0585 256.39 54.4885 256.39C62.9185 256.39 69.7485 256.49 69.7485 256.6Z" fill="#E0E0E0"/>
<path d="M56.4493 263.39H51.2793V274.28H56.4493V263.39Z" fill="#FAFAFA"/>
<path d="M107.98 236.99H22.9199V349.17H107.98V236.99Z" fill="#EBEBEB"/>
<path d="M107.98 236.99H68.0996V349.17H107.98V236.99Z" fill="#E0E0E0"/>
<path d="M48.4098 252.18H40.7598V270.76H48.4098V252.18Z" fill="#F5F5F5"/>
<path d="M48.4098 324.9H40.7598V343.48H48.4098V324.9Z" fill="#F5F5F5"/>
<path d="M68.0999 278.05C68.0999 278.26 57.9799 278.43 45.5099 278.43C33.0399 278.43 22.9199 278.26 22.9199 278.05C22.9199 277.84 33.0299 277.68 45.5099 277.68C57.9899 277.68 68.0999 277.85 68.0999 278.05Z" fill="#F5F5F5"/>
<path d="M48.4098 288.82H40.7598V307.4H48.4098V288.82Z" fill="#F5F5F5"/>
<path d="M68.0999 314.69C68.0999 314.9 57.9799 315.07 45.5099 315.07C33.0399 315.07 22.9199 314.9 22.9199 314.69C22.9199 314.48 33.0299 314.31 45.5099 314.31C57.9899 314.31 68.0999 314.48 68.0999 314.69Z" fill="#F5F5F5"/>
<path d="M84.2184 252.18H76.5684V270.76H84.2184V252.18Z" fill="#F5F5F5"/>
<path d="M100.81 252.18H93.1602V270.76H100.81V252.18Z" fill="#F5F5F5"/>
<path d="M84.2184 287.44H76.5684V306.02H84.2184V287.44Z" fill="#F5F5F5"/>
<path d="M100.81 287.44H93.1602V306.02H100.81V287.44Z" fill="#F5F5F5"/>
<path d="M84.2184 322.7H76.5684V341.28H84.2184V322.7Z" fill="#F5F5F5"/>
<path d="M100.81 322.7H93.1602V341.28H100.81V322.7Z" fill="#F5F5F5"/>
<path d="M114.369 233.09H16.5293V237.14H114.369V233.09Z" fill="#E0E0E0"/>
<path d="M108.57 237.52C108.57 237.72 89.5702 237.89 66.1202 237.89C42.6702 237.89 23.6602 237.72 23.6602 237.52C23.6602 237.32 42.6602 237.14 66.1202 237.14C89.5802 237.14 108.57 237.31 108.57 237.52Z" fill="#EBEBEB"/>
<path d="M255.639 349.18H169.909L169.539 213.69H255.269L255.639 349.18Z" fill="#EBEBEB"/>
<path d="M255.268 213.69H212.398V349.19H255.268V213.69Z" fill="#E0E0E0"/>
<path d="M209.6 187.01H179.33V213.68H209.6V187.01Z" fill="#EBEBEB"/>
<path d="M209.609 187.01H202.389V213.68H209.609V187.01Z" fill="#E0E0E0"/>
<path d="M257.779 212.13H162.389V213.69H257.779V212.13Z" fill="#E0E0E0"/>
<path d="M193.719 225.32H186.459V240.62H193.719V225.32Z" fill="white"/>
<path d="M212.399 246.63C212.399 246.79 202.809 246.92 190.969 246.92C179.129 246.92 169.539 246.79 169.539 246.63C169.539 246.47 179.129 246.34 190.969 246.34C202.809 246.34 212.399 246.47 212.399 246.63Z" fill="#E0E0E0"/>
<path d="M236.959 225.32H229.699V240.62H236.959V225.32Z" fill="#F5F5F5"/>
<path d="M255.639 246.63C255.639 246.79 246.049 246.92 234.209 246.92C222.369 246.92 212.779 246.79 212.779 246.63C212.779 246.47 222.369 246.34 234.209 246.34C246.049 246.34 255.639 246.47 255.639 246.63Z" fill="#EBEBEB"/>
<path d="M236.959 255.7H229.699V271H236.959V255.7Z" fill="#F5F5F5"/>
<path d="M255.639 277C255.639 277.16 246.049 277.29 234.209 277.29C222.369 277.29 212.779 277.16 212.779 277C212.779 276.84 222.369 276.71 234.209 276.71C246.049 276.71 255.639 276.85 255.639 277Z" fill="#EBEBEB"/>
<path d="M236.959 287H229.699V302.3H236.959V287Z" fill="#F5F5F5"/>
<path d="M255.639 308.31C255.639 308.47 246.049 308.6 234.209 308.6C222.369 308.6 212.779 308.47 212.779 308.31C212.779 308.15 222.369 308.01 234.209 308.01C246.049 308.01 255.639 308.15 255.639 308.31Z" fill="#EBEBEB"/>
<path d="M236.959 318.3H229.699V333.6H236.959V318.3Z" fill="#F5F5F5"/>
<path d="M255.639 339.6C255.639 339.76 246.049 339.9 234.209 339.9C222.369 339.9 212.779 339.76 212.779 339.6C212.779 339.44 222.369 339.31 234.209 339.31C246.049 339.31 255.639 339.44 255.639 339.6Z" fill="#EBEBEB"/>
<path d="M193.719 256.17H186.459V271.47H193.719V256.17Z" fill="white"/>
<path d="M212.399 277.47C212.399 277.63 202.809 277.77 190.969 277.77C179.129 277.77 169.539 277.63 169.539 277.47C169.539 277.31 179.129 277.18 190.969 277.18C202.809 277.18 212.399 277.31 212.399 277.47Z" fill="#E0E0E0"/>
<path d="M193.719 287.01H186.459V302.31H193.719V287.01Z" fill="white"/>
<path d="M212.399 308.32C212.399 308.48 202.809 308.61 190.969 308.61C179.129 308.61 169.539 308.48 169.539 308.32C169.539 308.16 179.129 308.02 190.969 308.02C202.809 308.02 212.399 308.16 212.399 308.32Z" fill="#E0E0E0"/>
<path d="M193.719 317.85H186.459V333.15H193.719V317.85Z" fill="white"/>
<path d="M212.399 339.16C212.399 339.32 202.809 339.45 190.969 339.45C179.129 339.45 169.539 339.32 169.539 339.16C169.539 339 179.129 338.87 190.969 338.87C202.809 338.87 212.399 339 212.399 339.16Z" fill="#E0E0E0"/>
<path d="M231.809 75.8701C232.089 75.8701 232.319 81.7901 232.319 89.1001C232.319 96.4101 232.089 102.34 231.809 102.34C231.529 102.34 231.289 96.4101 231.289 89.1001C231.289 81.7901 231.519 75.8701 231.809 75.8701Z" fill="#E0E0E0"/>
<path d="M258.129 104.39L184.309 125.34V267.3H258.129V104.39Z" fill="#E0E0E0"/>
<path d="M195.379 122.12V96.9502H240.829V109.22L195.379 122.12Z" fill="#E0E0E0"/>
<path d="M189.939 126.76L190.529 257.29H250.569V109.54L189.939 126.76Z" fill="white"/>
<path d="M206.18 260.26C205.89 260.26 205.66 228.94 205.66 190.31C205.66 151.68 205.89 120.31 206.18 120.31C206.47 120.31 206.69 151.62 206.69 190.31C206.69 229 206.46 260.26 206.18 260.26Z" fill="#E0E0E0"/>
<path d="M231.408 260.26C231.128 260.26 230.898 227.2 230.898 186.41C230.898 145.62 231.128 112.55 231.408 112.55C231.688 112.55 231.928 145.62 231.928 186.41C231.928 227.2 231.698 260.26 231.408 260.26Z" fill="#E0E0E0"/>
<path d="M254.71 146.69C254.71 146.97 239.71 147.2 221.32 147.2C202.93 147.2 187.93 146.97 187.93 146.69C187.93 146.41 202.88 146.17 221.32 146.17C239.76 146.17 254.71 146.4 254.71 146.69Z" fill="#E0E0E0"/>
<path d="M254.089 186.63C254.089 186.92 239.089 187.15 220.699 187.15C202.309 187.15 187.299 186.92 187.299 186.63C187.299 186.34 202.249 186.12 220.699 186.12C239.149 186.12 254.089 186.35 254.089 186.63Z" fill="#E0E0E0"/>
<path d="M257.829 226.89C257.829 227.18 242.319 227.41 223.189 227.41C204.059 227.41 188.549 227.18 188.549 226.89C188.549 226.6 204.059 226.37 223.189 226.37C242.319 226.37 257.829 226.61 257.829 226.89Z" fill="#E0E0E0"/>
<path d="M257.85 104.39C257.93 104.67 241.59 109.55 221.37 115.29C201.15 121.03 184.67 125.46 184.59 125.19C184.51 124.92 200.85 120.04 221.08 114.29C241.31 108.54 257.77 104.12 257.85 104.39Z" fill="#E0E0E0"/>
<path d="M209.549 176.52C209.349 176.32 212.979 172.36 217.659 167.68C222.339 163 226.299 159.37 226.499 159.57C226.699 159.77 223.069 163.73 218.389 168.41C213.709 173.09 209.749 176.72 209.549 176.52Z" fill="#E0E0E0"/>
<path d="M220.83 160.45C221.03 160.66 219.72 162.22 217.91 163.94C216.1 165.66 214.48 166.89 214.28 166.68C214.08 166.47 215.39 164.91 217.2 163.19C219.01 161.47 220.64 160.24 220.83 160.45Z" fill="#E0E0E0"/>
<path d="M224.998 205.64C225.198 205.84 222.098 209.33 218.068 213.43C214.038 217.53 210.618 220.69 210.408 220.49C210.198 220.29 213.308 216.81 217.338 212.7C221.368 208.59 224.788 205.44 224.998 205.64Z" fill="#E0E0E0"/>
<path d="M219.329 207.41C219.539 207.6 218.509 209.09 217.029 210.72C215.549 212.35 214.179 213.54 213.969 213.35C213.759 213.16 214.789 211.67 216.269 210.03C217.749 208.39 219.119 207.22 219.329 207.41Z" fill="#E0E0E0"/>
<path d="M244.829 126.78C245.049 126.97 243.509 129.13 241.389 131.61C239.269 134.09 237.389 135.94 237.159 135.76C236.929 135.58 238.489 133.41 240.599 130.93C242.709 128.45 244.609 126.6 244.829 126.78Z" fill="#E0E0E0"/>
<path d="M243.109 124.16C243.319 124.35 242.229 125.91 240.669 127.63C239.109 129.35 237.669 130.63 237.459 130.4C237.249 130.17 238.339 128.66 239.899 126.93C241.459 125.2 242.899 124 243.109 124.16Z" fill="#E0E0E0"/>
<path d="M200.63 241C200.86 241.17 199.92 242.9 198.53 244.87C197.14 246.84 195.81 248.3 195.58 248.14C195.35 247.98 196.29 246.24 197.68 244.27C199.07 242.3 200.4 240.87 200.63 241Z" fill="#E0E0E0"/>
<path d="M198.85 238.65C199.06 238.85 198.23 240.07 196.99 241.39C195.75 242.71 194.6 243.61 194.39 243.39C194.18 243.17 195.01 241.97 196.24 240.66C197.47 239.35 198.64 238.46 198.85 238.65Z" fill="#E0E0E0"/>
<path d="M420.69 163.62C420.056 161.652 419.154 159.781 418.01 158.06C417.44 157.204 416.704 156.473 415.845 155.909C414.985 155.345 414.021 154.961 413.01 154.78C411.982 154.627 410.934 154.82 410.029 155.329C409.123 155.838 408.413 156.633 408.01 157.59C407.72 153.19 407.09 148.68 404.89 144.86C402.69 141.04 398.58 138.04 394.18 138.31C390.04 138.56 386.48 141.64 384.51 145.31C382.54 148.98 381.86 153.16 381.21 157.31C379.64 155.38 376.32 155.99 374.68 157.86C373.04 159.73 372.62 162.34 372.27 164.81H421.74L420.69 163.62Z" fill="#F5F5F5"/>
<path d="M517.94 57.87C517.466 56.4236 516.793 55.0504 515.94 53.79C515.518 53.1593 514.972 52.6206 514.336 52.2064C513.701 51.7922 512.987 51.5111 512.24 51.38C511.488 51.2728 510.722 51.4165 510.06 51.7889C509.399 52.1614 508.878 52.7417 508.58 53.44C508.37 50.21 507.91 46.9 506.29 44.09C504.67 41.28 501.66 39.09 498.43 39.29C495.43 39.47 492.78 41.73 491.33 44.42C489.88 47.11 489.38 50.19 488.9 53.2C487.75 51.78 485.31 52.2 484.11 53.6C482.91 55 482.6 56.9 482.34 58.71H518.7L517.94 57.87Z" fill="#F5F5F5"/>
<path d="M661.34 97.6704C660.663 95.5879 659.708 93.6066 658.5 91.7804C657.89 90.8716 657.102 90.0957 656.184 89.4993C655.267 88.903 654.238 88.4985 653.159 88.3104C652.072 88.1617 650.966 88.3748 650.012 88.917C649.058 89.4591 648.308 90.3002 647.88 91.3104C647.57 86.6504 646.88 81.8704 644.58 77.8304C642.28 73.7904 637.889 70.6004 633.229 70.8904C628.839 71.1604 625.069 74.4204 622.979 78.3004C620.889 82.1804 620.17 86.6204 619.49 90.9704C617.82 88.9704 614.31 89.5604 612.57 91.5504C610.83 93.5404 610.39 96.3004 610.02 98.9104H662.43L661.34 97.6704Z" fill="#F5F5F5"/>
<path d="M704 121.11C703.664 120.085 703.193 119.11 702.599 118.21C702.299 117.759 701.91 117.375 701.456 117.079C701.002 116.783 700.493 116.583 699.96 116.49C699.425 116.414 698.88 116.517 698.41 116.783C697.939 117.049 697.57 117.463 697.359 117.96C697.331 115.648 696.773 113.373 695.729 111.31C695.195 110.284 694.391 109.423 693.405 108.819C692.418 108.215 691.286 107.89 690.13 107.88C689.06 108.032 688.044 108.446 687.172 109.084C686.3 109.723 685.598 110.566 685.13 111.54C684.206 113.511 683.621 115.624 683.4 117.79C682.58 116.79 680.85 117.1 679.99 118.07C679.227 119.136 678.789 120.4 678.729 121.71H704.59L704 121.11Z" fill="#F5F5F5"/>
<path d="M697.139 61.88C696.629 60.3323 695.909 58.8619 694.999 57.51C694.544 56.8298 693.954 56.2501 693.266 55.8064C692.578 55.3627 691.807 55.0644 690.999 54.93C690.195 54.8137 689.374 54.9664 688.666 55.3642C687.957 55.762 687.399 56.3827 687.079 57.13C686.849 53.67 686.359 50.13 684.629 47.13C682.899 44.13 679.629 41.76 676.199 41.97C672.929 42.17 670.139 44.6 668.589 47.48C667.039 50.36 666.499 53.66 665.989 56.89C664.749 55.37 662.139 55.89 660.849 57.32C659.559 58.75 659.229 60.85 658.949 62.79H697.999L697.139 61.88Z" fill="#EBEBEB"/>
<path d="M343.489 69.9996C343.015 68.5532 342.342 67.18 341.489 65.9196C341.065 65.2905 340.519 64.7529 339.883 64.3389C339.248 63.9249 338.535 63.6429 337.789 63.5096C337.037 63.4024 336.271 63.5461 335.609 63.9185C334.947 64.291 334.427 64.8714 334.129 65.5696C333.919 62.3396 333.459 59.0296 331.839 56.2296C330.219 53.4296 327.209 51.2296 323.979 51.4196C320.929 51.5996 318.329 53.8696 316.879 56.5496C315.581 59.3182 314.762 62.2871 314.459 65.3296C313.299 63.9197 310.859 64.3296 309.659 65.7396C308.459 67.1496 308.149 69.0296 307.889 70.8396H344.219L343.489 69.9996Z" fill="#F5F5F5"/>
<path d="M161.469 130C160.996 128.554 160.322 127.18 159.469 125.92C159.047 125.289 158.502 124.75 157.866 124.336C157.23 123.922 156.517 123.641 155.769 123.51C155.017 123.403 154.251 123.546 153.59 123.919C152.928 124.291 152.407 124.872 152.109 125.57C151.899 122.34 151.439 119.03 149.819 116.22C148.199 113.41 145.189 111.22 141.959 111.42C138.909 111.6 136.309 113.86 134.859 116.55C133.409 119.24 132.909 122.32 132.429 125.33C131.279 123.91 128.839 124.33 127.639 125.73C126.439 127.13 126.129 129.03 125.869 130.84H162.199L161.469 130Z" fill="#EBEBEB"/>
<path d="M108.869 64.72C108.219 62.6981 107.297 60.7738 106.129 59C105.539 58.1332 104.78 57.3936 103.899 56.8251C103.018 56.2565 102.032 55.8706 100.999 55.69C99.9527 55.5398 98.8862 55.7398 97.9656 56.2589C97.0449 56.778 96.3218 57.587 95.9089 58.56C95.6089 54.06 94.9689 49.45 92.7189 45.56C90.4689 41.67 86.2689 38.56 81.7789 38.87C77.5389 39.13 73.9089 42.28 71.8889 46.01C69.8689 49.74 69.1789 54.01 68.5189 58.23C66.9089 56.23 63.5189 56.88 61.8389 58.79C60.1589 60.7 59.7389 63.38 59.3789 65.9H109.939L108.869 64.72Z" fill="#F5F5F5"/>
<path d="M334.359 115C333.688 112.939 332.743 110.978 331.549 109.17C330.946 108.268 330.167 107.498 329.257 106.906C328.348 106.315 327.328 105.915 326.259 105.73C325.185 105.573 324.089 105.776 323.143 106.308C322.196 106.84 321.453 107.671 321.029 108.67C320.719 104.06 320.029 99.33 317.759 95.32C315.489 91.31 311.139 88.17 306.529 88.45C302.179 88.72 298.449 91.95 296.379 95.79C294.309 99.63 293.599 104.02 292.919 108.33C291.279 106.33 287.789 106.94 286.069 108.9C284.349 110.86 283.909 113.61 283.549 116.2H335.439L334.359 115Z" fill="#EBEBEB"/>
<path d="M739.471 350.22C739.471 350.36 576.301 350.48 375.071 350.48C173.841 350.48 10.6406 350.36 10.6406 350.22C10.6406 350.08 173.771 350 375.071 350C576.371 350 739.471 350.08 739.471 350.22Z" fill="#263238"/>
<path d="M739.471 358.67C739.471 358.82 576.301 358.93 375.071 358.93C173.841 358.93 10.6406 358.82 10.6406 358.67C10.6406 358.52 173.771 358.41 375.071 358.41C576.371 358.41 739.471 358.53 739.471 358.67Z" fill="#263238"/>
<path d="M166.001 471.85C166.001 471.99 150.801 472.11 132.001 472.11C113.201 472.11 98.0605 471.99 98.0605 471.85C98.0605 471.71 113.251 471.59 132.001 471.59C150.751 471.59 166.001 471.71 166.001 471.85Z" fill="#263238"/>
<path d="M235.761 464.71C235.761 464.85 211.281 464.97 181.081 464.97C150.881 464.97 126.391 464.85 126.391 464.71C126.391 464.57 150.871 464.45 181.081 464.45C211.291 464.45 235.761 464.56 235.761 464.71Z" fill="#263238"/>
<path d="M574.331 471.85C574.331 471.99 563.561 472.11 550.281 472.11C537.001 472.11 526.281 471.99 526.281 471.85C526.281 471.71 537.051 471.59 550.281 471.59C563.511 471.59 574.331 471.71 574.331 471.85Z" fill="#263238"/>
<path d="M609.09 464.71C609.09 464.85 596.42 464.97 580.8 464.97C565.18 464.97 552.51 464.85 552.51 464.71C552.51 464.57 565.17 464.45 580.8 464.45C596.43 464.45 609.09 464.56 609.09 464.71Z" fill="#263238"/>
<path d="M178.669 76.7701C178.669 76.7701 178.049 76.5501 176.899 76.3001C175.257 75.9384 173.564 75.874 171.899 76.1101C169.466 76.4461 167.172 77.446 165.269 79.0001C162.933 80.9194 161.28 83.5436 160.559 86.4801V86.5701L160.429 87.1001L160.219 86.5901C159.071 83.8021 157.105 81.4276 154.579 79.7801C152.519 78.4412 150.151 77.6528 147.699 77.4901C146.046 77.3672 144.383 77.5192 142.779 77.9401C141.639 78.2401 141.039 78.5001 141.029 78.4701C141.162 78.387 141.303 78.3166 141.449 78.2601C141.871 78.0842 142.302 77.9307 142.739 77.8001C144.361 77.3237 146.052 77.1309 147.739 77.2301C150.247 77.3649 152.677 78.1507 154.789 79.5101C157.396 81.1889 159.419 83.6344 160.579 86.5101H160.239V86.4201C160.971 83.4039 162.68 80.7143 165.099 78.7701C167.063 77.1858 169.434 76.1875 171.939 75.8901C173.611 75.6848 175.306 75.7899 176.939 76.2001C177.383 76.313 177.82 76.4499 178.249 76.6101C178.395 76.6483 178.535 76.7019 178.669 76.7701Z" fill="#263238"/>
<path d="M228.179 49.6003C228.179 49.6003 227.829 49.5003 227.179 49.3703C226.287 49.1885 225.371 49.1614 224.469 49.2903C223.136 49.4764 221.88 50.0266 220.839 50.8803C219.567 51.9406 218.675 53.3871 218.299 55.0003L218.159 55.5303L217.999 55.0003C217.372 53.4833 216.302 52.1904 214.929 51.2903C213.793 50.5444 212.485 50.1005 211.129 50.0003C210.227 49.9352 209.32 50.0094 208.439 50.2203C208.111 50.3245 207.777 50.4113 207.439 50.4803C207.511 50.4313 207.588 50.391 207.669 50.3603C207.9 50.2539 208.137 50.1636 208.379 50.0903C209.268 49.8125 210.2 49.6973 211.129 49.7503C212.527 49.8126 213.883 50.2439 215.059 51.0003C216.506 51.9237 217.63 53.2721 218.279 54.8603H217.939V54.8103C218.344 53.1338 219.294 51.639 220.639 50.5603C221.739 49.6877 223.064 49.1465 224.459 49.0003C225.387 48.8888 226.327 48.9567 227.229 49.2003C227.476 49.2602 227.717 49.3405 227.949 49.4403C228.109 49.5503 228.189 49.5903 228.179 49.6003Z" fill="#263238"/>
<path d="M195.809 38.4802C195.809 38.4802 195.469 38.8702 194.859 39.5602C194 40.5406 193.224 41.5909 192.539 42.7002C190.259 46.3625 189.062 50.596 189.089 54.9102V55.0602H188.729C188.063 50.8323 186.095 46.9173 183.099 43.8602C182.196 42.9364 181.209 42.0994 180.149 41.3602C179.399 40.8402 178.959 40.5802 178.979 40.5502C179.096 40.5881 179.207 40.6419 179.309 40.7102C179.625 40.8706 179.932 41.0475 180.229 41.2402C181.328 41.9449 182.35 42.7627 183.279 43.6802C186.378 46.7331 188.411 50.7021 189.079 55.0002H188.729V54.8402C188.699 50.462 189.947 46.1702 192.319 42.4902C193.029 41.3823 193.846 40.3472 194.759 39.4002C195.069 39.0502 195.349 38.8202 195.519 38.6502C195.689 38.4802 195.799 38.4702 195.809 38.4802Z" fill="#263238"/>
<path d="M414.26 104.49C426.918 104.49 437.18 94.2288 437.18 81.5704C437.18 68.912 426.918 58.6504 414.26 58.6504C401.601 58.6504 391.34 68.912 391.34 81.5704C391.34 94.2288 401.601 104.49 414.26 104.49Z" fill="#C6FF00"/>
<path opacity="0.9" d="M414.26 104.49C426.918 104.49 437.18 94.2288 437.18 81.5704C437.18 68.912 426.918 58.6504 414.26 58.6504C401.601 58.6504 391.34 68.912 391.34 81.5704C391.34 94.2288 401.601 104.49 414.26 104.49Z" fill="white"/>
<path d="M434.137 86.2983C436.753 75.3169 429.972 64.294 418.99 61.6779C408.009 59.0617 396.986 65.8431 394.37 76.8245C391.754 87.8058 398.535 98.8288 409.516 101.445C420.498 104.061 431.521 97.2797 434.137 86.2983Z" fill="#C6FF00"/>
<path opacity="0.6" d="M434.137 86.2983C436.753 75.3169 429.972 64.294 418.99 61.6779C408.009 59.0617 396.986 65.8431 394.37 76.8245C391.754 87.8058 398.535 98.8288 409.516 101.445C420.498 104.061 431.521 97.2797 434.137 86.2983Z" fill="white"/>
<path d="M414.26 98.5806C423.654 98.5806 431.27 90.9649 431.27 81.5705C431.27 72.1762 423.654 64.5605 414.26 64.5605C404.866 64.5605 397.25 72.1762 397.25 81.5705C397.25 90.9649 404.866 98.5806 414.26 98.5806Z" fill="#C6FF00"/>
<path opacity="0.3" d="M414.26 98.5806C423.654 98.5806 431.27 90.9649 431.27 81.5705C431.27 72.1762 423.654 64.5605 414.26 64.5605C404.866 64.5605 397.25 72.1762 397.25 81.5705C397.25 90.9649 404.866 98.5806 414.26 98.5806Z" fill="white"/>
<path d="M419.438 94.1976C426.397 91.3433 429.725 83.3876 426.871 76.4281C424.017 69.4685 416.061 66.1406 409.101 68.9949C402.142 71.8492 398.814 79.8049 401.668 86.7644C404.523 93.724 412.478 97.0519 419.438 94.1976Z" fill="#C6FF00"/>
<path d="M718.739 414H714.149C712.609 414 711.369 414.46 711.369 415V422.78C711.369 423.46 712.829 424 714.639 424H717.299V424.46C716.479 425.8 713.789 428.71 705.959 428.82C701.179 428.88 695.219 428.9 691.509 428.9V384.48C691.749 384.48 691.509 373.1 691.509 368.14L680.509 363.26H593.819C593.979 363.4 594.119 363.55 594.269 363.7H589.679C583.609 358.2 568.999 354.36 552.079 354.45C535.579 354.54 521.549 358.34 515.629 363.7H509.429C509.568 363.546 509.715 363.399 509.869 363.26H279.869C280.029 363.4 280.169 363.55 280.319 363.7H274.909C268.839 358.2 254.229 354.36 237.309 354.45C220.809 354.54 206.779 358.34 200.859 363.7H195.479C195.618 363.546 195.765 363.399 195.919 363.26H136.999L75.2188 367.17L75.3487 369.64H75.2188L75.8187 379.04C75.9087 382.26 76.0187 385.47 76.3587 388.61L95.5187 430.24C95.6287 432.35 100.239 434.04 105.889 434.05L137.889 435.85L141.399 437C143.745 437.71 146.188 438.047 148.639 438H193.999C196.649 438.05 199.287 437.627 201.789 436.75L204.039 435.87L300.649 436.02V436.11H355.599L438.059 436.25L440.409 437.74C442.199 438.88 445.409 439.57 448.969 439.57H614.699C617.26 439.647 619.807 439.173 622.169 438.18L625.849 436.35H679.459C685.159 436.35 691.459 433.98 691.459 431.86V431.27H703.809C712.809 431.27 720.809 428.55 721.029 425.19H721.459V414.99C721.509 414.48 720.269 414 718.739 414Z" fill="#F5F5F5"/>
<path d="M84.209 392.719C84.209 392.719 131.749 411.219 140.989 410.419C150.229 409.619 190.139 408.239 190.139 408.239L228.999 422.809C228.999 422.809 259.999 422.889 267.879 414.449C275.759 406.009 277.359 405.399 277.359 405.399H519.549L559.609 421.399C559.609 421.399 592.179 413.789 599.839 407.799H680.459V398.319C680.459 398.319 215.379 374.389 213.569 372.999C211.759 371.609 84.209 392.719 84.209 392.719Z" fill="#E0E0E0"/>
<path d="M272.459 329.069H167.799V397.059H272.459V329.069Z" fill="#C6FF00"/>
<path opacity="0.3" d="M272.459 329.069H167.799V397.059H272.459V329.069Z" fill="black"/>
<path d="M600.01 329.069H495.35V397.059H600.01V329.069Z" fill="#C6FF00"/>
<path opacity="0.3" d="M600.01 329.069H495.35V397.059H600.01V329.069Z" fill="black"/>
<path d="M705.789 208.84H689.329V215.46C689.329 215.46 700.179 215.39 707.979 215.68C718.549 216.07 720.099 229.68 720.099 229.68H723.699V226.07C723.699 216.59 715.299 208.84 705.789 208.84Z" fill="#C6FF00"/>
<path d="M719.759 225.88V229.08H716.999C716.1 229.08 715.238 229.437 714.602 230.073C713.967 230.709 713.609 231.571 713.609 232.47V254.13C713.609 254.894 713.913 255.626 714.453 256.166C714.993 256.707 715.726 257.01 716.489 257.01H721.259C722.023 257.01 722.756 256.707 723.296 256.166C723.836 255.626 724.139 254.894 724.139 254.13V225.75L719.759 225.88Z" fill="#C6FF00"/>
<path d="M719.769 241.1C719.506 238.897 719.419 236.676 719.509 234.46C719.419 232.24 719.506 230.016 719.769 227.81C720.026 230.016 720.113 232.24 720.029 234.46C720.113 236.676 720.026 238.896 719.769 241.1Z" fill="#263238"/>
<path d="M624.759 194.59L620.999 189.51C620.093 188.307 618.919 187.331 617.57 186.659C616.222 185.987 614.736 185.638 613.229 185.64H441.079C439.284 185.64 437.519 186.108 435.96 186.999C434.401 187.89 433.101 189.173 432.189 190.72L429.749 194.88L67.2294 196.47C64.4036 196.48 61.6941 197.596 59.6811 199.579C57.6681 201.562 56.5116 204.254 56.4594 207.08L52.8594 387.4L116.999 398.28H178.109C175.197 391.131 174.087 383.376 174.877 375.697C175.667 368.018 178.333 360.652 182.64 354.246C186.947 347.84 192.763 342.591 199.576 338.962C206.389 335.334 213.99 333.435 221.709 333.435C229.429 333.435 237.029 335.334 243.843 338.962C250.656 342.591 256.472 347.84 260.779 354.246C265.086 360.652 267.752 368.018 268.542 375.697C269.332 383.376 268.222 391.131 265.309 398.28H504.309C501.394 391.129 500.282 383.372 501.071 375.69C501.86 368.009 504.526 360.639 508.833 354.231C513.141 347.822 518.959 342.571 525.774 338.941C532.589 335.31 540.193 333.411 547.914 333.411C555.636 333.411 563.24 335.31 570.055 338.941C576.87 342.571 582.688 347.822 586.995 354.231C591.303 360.639 593.969 368.009 594.758 375.69C595.547 383.372 594.435 391.129 591.519 398.28H681.519L692.999 384.68V207.22C692.999 201.31 686.399 194.71 680.489 194.71L624.759 194.59Z" fill="#C6FF00"/>
<path d="M69 220.21V303C69.0026 307.184 70.666 311.196 73.6248 314.155C76.5835 317.114 80.5957 318.777 84.78 318.78H282.23V222.42L69 220.21Z" fill="#263238"/>
<path d="M76.25 226.699V273.269L87.73 280.739H173.26V226.769L76.25 226.699Z" fill="#455A64"/>
<path d="M181 288.739V226.739H276.91V311.649L260.32 294.999C258.299 292.979 255.9 291.377 253.259 290.286C250.618 289.194 247.788 288.635 244.93 288.639L181 288.739Z" fill="#455A64"/>
<path opacity="0.2" d="M190.139 288.729L259.019 226.759L276.939 226.699L209.309 288.699L190.139 288.729Z" fill="white"/>
<path d="M599.84 220.21H402.99V318.73H599.84V220.21Z" fill="#263238"/>
<path d="M497.07 224.84H407.68V312.99H497.07V224.84Z" fill="#455A64"/>
<path d="M594.15 224.84H504.76V312.99H594.15V224.84Z" fill="#455A64"/>
<path d="M480 398.25C480 398.25 480 397.93 480 397.33C480 396.73 480 395.82 480 394.67C480 392.33 480 388.93 479.94 384.61C479.94 375.94 479.88 363.61 479.83 348.67L480.05 348.88L418.79 348.93L419.05 348.67C419.05 366.59 419.05 383.51 419.05 398.25L418.81 398.02L463.04 398.14L475.58 398.2H478.91H480H479.72H478.89H475.6L463.11 398.26L418.73 398.38H418.5V398.14C418.5 383.4 418.5 366.48 418.5 348.56V348.3H418.77H480.03H480.24V348.52C480.24 363.52 480.16 375.9 480.13 384.59C480.13 388.9 480.13 392.28 480.13 394.59C480.13 395.73 480.13 396.59 480.13 397.21C480.13 397.83 480 398.25 480 398.25Z" fill="#263238"/>
<path d="M169.999 398.28C169.999 398.28 169.999 398.16 169.999 397.93C169.999 397.7 169.999 397.34 169.999 396.93C169.999 396.01 169.999 394.69 169.999 392.93C169.999 389.46 169.949 384.46 169.919 378.19C169.919 365.6 169.919 347.97 169.829 327.69L170.079 327.94H147.299L81.3593 327.86L61.3593 327.78L55.9193 327.73H54.5093H54.0293C54.0293 327.73 54.1893 327.73 54.5093 327.73H55.9193L61.3593 327.68L81.3593 327.59L147.299 327.52H170.239V327.77C170.239 348.05 170.169 365.68 170.139 378.27C170.139 384.54 170.139 389.54 170.069 393.01C170.069 394.72 170.069 396.01 170.069 397.01C170.069 397.44 170.069 397.78 170.069 398.01C170.054 398.101 170.03 398.192 169.999 398.28Z" fill="#263238"/>
<path d="M119.629 329.069C119.779 329.069 119.899 344.549 119.899 363.649C119.899 382.749 119.779 398.229 119.629 398.229C119.479 398.229 119.369 382.749 119.369 363.649C119.369 344.549 119.489 329.069 119.629 329.069Z" fill="#263238"/>
<path d="M71.0002 328.25C71.1402 328.25 71.2602 342.13 71.2602 359.25C71.2602 376.37 71.1402 390.25 71.0002 390.25C70.8602 390.25 70.7402 376.37 70.7402 359.25C70.7402 342.13 70.8102 328.25 71.0002 328.25Z" fill="#263238"/>
<path d="M163.059 383.109C163.05 383.04 163.05 382.969 163.059 382.899V382.269C163.059 381.696 163.059 380.896 163.059 379.869C163.059 377.759 163.059 374.709 162.999 370.869C162.999 363.119 162.929 352.119 162.889 338.999L163.119 339.229H124.779C124.719 339.289 125.269 338.739 125.039 338.979V350.979C125.039 354.889 125.039 358.709 125.039 362.419C125.039 369.829 125.039 376.799 125.039 383.139L124.819 382.919L152.579 383.039L160.369 383.099H162.429H163.159H162.479H160.479L152.739 383.159L124.839 383.269H124.619V383.039C124.619 376.699 124.619 369.729 124.619 362.319C124.619 358.609 124.619 354.789 124.619 350.879V338.999L124.879 338.729H163.219H163.449V338.999C163.449 352.179 163.359 363.229 163.329 370.999C163.329 374.839 163.329 377.879 163.269 379.999C163.269 380.999 163.269 381.789 163.269 382.349C163.269 382.599 163.269 382.799 163.269 382.949C163.269 383.099 163.059 383.119 163.059 383.109Z" fill="#263238"/>
<path d="M129.389 339C129.529 339 129.649 348.88 129.649 361.07C129.649 373.26 129.529 383.14 129.389 383.14C129.249 383.14 129.129 373.26 129.129 361.07C129.129 348.88 129.249 339 129.389 339Z" fill="#263238"/>
<path d="M135.19 339C135.33 339 135.45 348.88 135.45 361.07C135.45 373.26 135.33 383.14 135.19 383.14C135.05 383.14 134.93 373.26 134.93 361.07C134.93 348.88 135.05 339 135.19 339Z" fill="#263238"/>
<path d="M141 339C141.14 339 141.26 348.88 141.26 361.07C141.26 373.26 141.14 383.14 141 383.14C140.86 383.14 140.74 373.26 140.74 361.07C140.74 348.88 140.84 339 141 339Z" fill="#263238"/>
<path d="M146.789 339C146.929 339 147.049 348.88 147.049 361.07C147.049 373.26 146.929 383.14 146.789 383.14C146.649 383.14 146.529 373.26 146.529 361.07C146.529 348.88 146.639 339 146.789 339Z" fill="#263238"/>
<path d="M152.59 339C152.73 339 152.85 348.88 152.85 361.07C152.85 373.26 152.73 383.14 152.59 383.14C152.45 383.14 152.32 373.26 152.32 361.07C152.32 348.88 152.44 339 152.59 339Z" fill="#263238"/>
<path d="M158.379 339C158.529 339 158.639 348.88 158.639 361.07C158.639 373.26 158.529 383.14 158.379 383.14C158.229 383.14 158.119 373.26 158.119 361.07C158.119 348.88 158.239 339 158.379 339Z" fill="#263238"/>
<path d="M394.509 232.04H289.809V398.28H394.509V232.04Z" fill="#263238"/>
<path d="M335.46 243.43H295.65V373.47H335.46V243.43Z" fill="#455A64"/>
<path d="M387.88 243.43H348.07V373.47H387.88V243.43Z" fill="#455A64"/>
<path d="M342 232C342.14 232 342.26 269 342.26 314.5C342.26 360 342.14 397.01 342 397.01C341.86 397.01 341.74 360.08 341.74 314.5C341.74 268.92 341.84 232 342 232Z" fill="#455A64"/>
<path opacity="0.3" d="M136.3 226.699L77.9199 274.389L87.7299 280.739L151.04 226.699H136.3Z" fill="white"/>
<path opacity="0.3" d="M99.0801 280.74L162.26 226.76H165.87L102.9 280.74H99.0801Z" fill="white"/>
<path opacity="0.3" d="M407.679 285.32L474.839 224.91L492.749 224.84L407.469 303.02L407.679 285.32Z" fill="white"/>
<path opacity="0.3" d="M295.65 323.42V340.94L335.46 304.44V287.6L295.65 323.42Z" fill="white"/>
<path opacity="0.3" d="M348.07 344.269V361.789L387.88 325.289V308.449L348.07 344.269Z" fill="white"/>
<path opacity="0.2" d="M365.13 243.43L348.07 258.78V276.3L383.92 243.43H365.13Z" fill="white"/>
<path opacity="0.3" d="M295.64 347.63L295.57 353.36L335.46 317.23V312.18L295.64 347.63Z" fill="white"/>
<path d="M672.609 232.04H610.039V398.28H672.609V232.04Z" fill="#263238"/>
<path d="M665.769 243.43H615.889V373.47H665.769V243.43Z" fill="#455A64"/>
<path opacity="0.2" d="M665.769 243.43H646.449V347.46H665.769V243.43Z" fill="black"/>
<path opacity="0.3" d="M615.91 323.42V340.94L665.77 304.44V287.6L615.91 323.42Z" fill="white"/>
<path opacity="0.3" d="M615.889 347.63L615.809 353.36L665.769 317.23V312.18L615.889 347.63Z" fill="white"/>
<path opacity="0.2" d="M506.309 285.89L574.179 224.84H593.029L506.109 303.59L506.309 285.89Z" fill="white"/>
<path opacity="0.3" d="M504.76 313.46L590.54 233.81H594.15L508.58 313.46H504.76Z" fill="white"/>
<path d="M277.71 232.93H76.25V234.69H277.71V232.93Z" fill="#263238"/>
<path d="M598.289 232.93H405.949V234.69H598.289V232.93Z" fill="#263238"/>
<path d="M600.079 340.939H595.619C594.155 340.939 592.969 342.126 592.969 343.589V343.769C592.969 345.233 594.155 346.419 595.619 346.419H600.079C601.542 346.419 602.729 345.233 602.729 343.769V343.589C602.729 342.126 601.542 340.939 600.079 340.939Z" fill="#FF9A6C"/>
<path d="M492.34 373.46H487.88C486.417 373.46 485.23 374.646 485.23 376.11V376.29C485.23 377.754 486.417 378.94 487.88 378.94H492.34C493.804 378.94 494.99 377.754 494.99 376.29V376.11C494.99 374.646 493.804 373.46 492.34 373.46Z" fill="white"/>
<path d="M408.62 373.46H404.16C402.696 373.46 401.51 374.646 401.51 376.11V376.29C401.51 377.754 402.696 378.94 404.16 378.94H408.62C410.083 378.94 411.27 377.754 411.27 376.29V376.11C411.27 374.646 410.083 373.46 408.62 373.46Z" fill="#FF9A6C"/>
<path d="M279.569 373H275.109C273.645 373 272.459 374.186 272.459 375.65V375.83C272.459 377.294 273.645 378.48 275.109 378.48H279.569C281.033 378.48 282.219 377.294 282.219 375.83V375.65C282.219 374.186 281.033 373 279.569 373Z" fill="#FF9A6C"/>
<path d="M81.569 378.479H77.109C75.6454 378.479 74.459 379.666 74.459 381.129V381.309C74.459 382.773 75.6454 383.959 77.109 383.959H81.569C83.0325 383.959 84.219 382.773 84.219 381.309V381.129C84.219 379.666 83.0325 378.479 81.569 378.479Z" fill="#FF9A6C"/>
<path opacity="0.2" d="M634.069 243.43V305.02H615.909L615.889 243.43H634.069Z" fill="black"/>
<path d="M692.97 216.04H680.46V339.21H692.97V216.04Z" fill="#263238"/>
<path d="M692.999 328.71C692.999 328.71 686.639 330.33 684.999 324.64C683.359 318.95 684.999 220.21 684.999 220.21H692.999V328.71Z" fill="#455A64"/>
<path opacity="0.3" d="M684.26 282.439L693 275.999V264.499C693 263.549 684.29 269.499 684.29 269.499L684.26 282.439Z" fill="white"/>
<path opacity="0.2" d="M455.89 186.14H453.65V191.49H455.89V186.14Z" fill="black"/>
<path opacity="0.2" d="M460.15 186.14H457.91V191.49H460.15V186.14Z" fill="black"/>
<path opacity="0.2" d="M464.41 186.14H462.17V191.49H464.41V186.14Z" fill="black"/>
<path opacity="0.2" d="M468.67 186.14H466.43V191.49H468.67V186.14Z" fill="black"/>
<path opacity="0.2" d="M472.939 186.14H470.699V191.49H472.939V186.14Z" fill="black"/>
<path opacity="0.2" d="M477.199 186.14H474.959V191.49H477.199V186.14Z" fill="black"/>
<path opacity="0.2" d="M481.459 186.14H479.219V191.49H481.459V186.14Z" fill="black"/>
<path opacity="0.2" d="M485.72 186.14H483.48V191.49H485.72V186.14Z" fill="black"/>
<path opacity="0.2" d="M489.99 186.14H487.75V191.49H489.99V186.14Z" fill="black"/>
<path opacity="0.2" d="M494.25 186.14H492.01V191.49H494.25V186.14Z" fill="black"/>
<path opacity="0.2" d="M498.51 186.14H496.27V191.49H498.51V186.14Z" fill="black"/>
<path opacity="0.2" d="M502.769 186.14H500.529V191.49H502.769V186.14Z" fill="black"/>
<path opacity="0.2" d="M507.039 186.14H504.799V191.49H507.039V186.14Z" fill="black"/>
<path opacity="0.2" d="M511.299 186.14H509.059V191.49H511.299V186.14Z" fill="black"/>
<path d="M625.12 194.59C625.12 194.73 581.31 194.85 527.28 194.85C473.25 194.85 429.42 194.73 429.42 194.59C429.42 194.45 473.23 194.33 527.28 194.33C581.33 194.33 625.12 194.44 625.12 194.59Z" fill="black"/>
<path d="M693 213.999C693 214.139 550.47 214.259 374.69 214.259C198.91 214.259 56.3203 214.149 56.3203 213.999C56.3203 213.849 198.82 213.739 374.66 213.739C550.5 213.739 693 213.859 693 213.999Z" fill="#263238"/>
<path d="M224.13 420.029C244.128 420.029 260.34 403.818 260.34 383.819C260.34 363.821 244.128 347.609 224.13 347.609C204.132 347.609 187.92 363.821 187.92 383.819C187.92 403.818 204.132 420.029 224.13 420.029Z" fill="#455A64"/>
<path d="M688.19 360.949H681.56V372.419H688.19V360.949Z" fill="#FF9A6C"/>
<path d="M692.989 360.949H688.189V372.419H692.989V360.949Z" fill="white"/>
<path d="M398.39 195.25H287.02V224.83H398.39V195.25Z" fill="#263238"/>
<path opacity="0.2" d="M394.5 198.43H290.48V221.66H394.5V198.43Z" fill="black"/>
<path d="M263.272 382.967C264.254 360.018 246.447 340.619 223.498 339.637C200.55 338.655 181.15 356.462 180.168 379.411C179.187 402.359 196.994 421.759 219.943 422.741C242.891 423.723 262.291 405.915 263.272 382.967Z" fill="#263238"/>
<path d="M180.159 380.51V380.62C180 391.647 184.228 402.287 191.913 410.197C199.598 418.107 210.111 422.641 221.139 422.8C232.166 422.959 242.806 418.731 250.716 411.046C258.626 403.36 263.16 392.847 263.319 381.82V381.71L180.159 380.51Z" fill="#263238"/>
<path d="M192.54 380.8C192.461 386.574 194.096 392.241 197.238 397.085C200.38 401.93 204.888 405.734 210.191 408.017C215.495 410.3 221.356 410.96 227.034 409.912C232.713 408.865 237.953 406.157 242.093 402.132C246.233 398.107 249.086 392.945 250.293 387.298C251.499 381.651 251.004 375.774 248.871 370.408C246.738 365.043 243.061 360.43 238.307 357.154C233.552 353.877 227.933 352.084 222.16 352C218.324 351.946 214.515 352.648 210.95 354.066C207.385 355.484 204.135 357.59 201.384 360.265C198.634 362.939 196.437 366.129 194.919 369.653C193.402 373.176 192.593 376.964 192.54 380.8Z" fill="#FAFAFA"/>
<path d="M222.159 351.999C214.416 351.887 206.946 354.855 201.391 360.25C195.836 365.646 192.652 373.026 192.539 380.769L250.929 381.609C250.985 377.776 250.284 373.969 248.869 370.406C247.453 366.843 245.349 363.594 242.677 360.845C240.006 358.095 236.819 355.899 233.298 354.381C229.778 352.863 225.992 352.054 222.159 351.999Z" fill="#E0E0E0"/>
<path d="M204 381C203.947 384.52 204.94 387.978 206.852 390.934C208.765 393.89 211.512 396.212 214.746 397.605C217.979 398.999 221.553 399.402 225.016 398.763C228.478 398.125 231.673 396.473 234.196 394.017C236.719 391.561 238.457 388.412 239.189 384.968C239.921 381.524 239.615 377.94 238.309 374.67C237.003 371.4 234.756 368.592 231.853 366.6C228.95 364.608 225.521 363.522 222 363.48C217.291 363.421 212.751 365.233 209.377 368.517C206.002 371.802 204.069 376.291 204 381Z" fill="#263238"/>
<path d="M550.504 422.737C573.454 421.783 591.285 402.405 590.331 379.455C589.378 356.506 570 338.675 547.05 339.628C524.101 340.582 506.269 359.96 507.223 382.91C508.177 405.859 527.555 423.69 550.504 422.737Z" fill="#263238"/>
<path d="M507.17 380.51C507.17 380.51 507.17 380.59 507.17 380.62C507.073 391.609 511.331 402.189 519.011 410.049C526.691 417.909 537.17 422.411 548.158 422.569C559.146 422.728 569.751 418.531 577.654 410.895C585.558 403.26 590.119 392.807 590.34 381.82V381.71L507.17 380.51Z" fill="#263238"/>
<path d="M519.55 380.8C519.471 386.574 521.106 392.241 524.248 397.085C527.39 401.93 531.897 405.734 537.201 408.017C542.504 410.3 548.366 410.96 554.044 409.912C559.723 408.865 564.963 406.157 569.103 402.132C573.242 398.107 576.096 392.945 577.302 387.298C578.509 381.651 578.014 375.774 575.881 370.408C573.747 365.043 570.071 360.43 565.317 357.154C560.562 353.877 554.943 352.084 549.17 352C545.334 351.946 541.524 352.648 537.96 354.066C534.395 355.484 531.145 357.59 528.394 360.265C525.644 362.939 523.447 366.129 521.929 369.653C520.412 373.176 519.603 376.964 519.55 380.8Z" fill="#FAFAFA"/>
<path d="M549.169 351.999C541.426 351.887 533.956 354.855 528.401 360.25C522.846 365.646 519.662 373.026 519.549 380.769L577.939 381.609C577.994 377.776 577.294 373.969 575.878 370.406C574.463 366.843 572.359 363.594 569.687 360.845C567.016 358.095 563.828 355.899 560.308 354.381C556.787 352.863 553.002 352.054 549.169 351.999Z" fill="#E0E0E0"/>
<path d="M531 381C530.947 384.52 531.94 387.978 533.852 390.934C535.765 393.89 538.512 396.212 541.746 397.605C544.979 398.999 548.553 399.402 552.016 398.763C555.478 398.125 558.673 396.473 561.196 394.017C563.719 391.561 565.457 388.412 566.189 384.968C566.921 381.524 566.615 377.94 565.309 374.67C564.003 371.4 561.756 368.592 558.853 366.6C555.95 364.608 552.521 363.522 549 363.48C544.291 363.421 539.751 365.233 536.377 368.517C533.002 371.802 531.069 376.291 531 381Z" fill="#263238"/>
<path opacity="0.2" d="M173.27 226.699H76.25V229.439H173.27V226.699Z" fill="black"/>
<path opacity="0.2" d="M276.939 226.699H181.029V229.439H276.939V226.699Z" fill="black"/>
<path opacity="0.2" d="M387.88 243.43H295.65V246.17H387.88V243.43Z" fill="black"/>
<path opacity="0.2" d="M594.15 224.84H407.68V227.58H594.15V224.84Z" fill="black"/>
<path d="M117.93 196.24L121.56 192.93C123.614 191.052 126.296 190.01 129.08 190.01H176.24C177.753 190.011 179.25 190.319 180.64 190.916C182.031 191.512 183.286 192.384 184.33 193.48L186.95 196.24H117.93Z" fill="#C6FF00"/>
<path d="M190.129 196.24C190.129 196.39 173.679 196.499 153.379 196.499C133.079 196.499 116.629 196.39 116.629 196.24C116.629 196.09 133.079 195.979 153.379 195.979C173.679 195.979 190.129 196.1 190.129 196.24Z" fill="#263238"/>
<path d="M58.5794 380.51H52.8594L53.6694 346.62H62.6694V376.41C62.6694 377.496 62.2388 378.537 61.472 379.306C60.7053 380.074 59.665 380.507 58.5794 380.51Z" fill="white"/>
<path d="M54.0495 327.72C54.0755 327.922 54.0755 328.127 54.0495 328.33C54.0495 328.78 54.0495 329.33 54.0495 330.07C54.0495 331.64 53.9895 333.81 53.9395 336.46C53.8795 341.92 53.7995 349.35 53.7095 357.56C53.6195 365.77 53.5095 373.27 53.3195 378.67C53.2295 381.37 53.1295 383.55 53.0395 385.06C53.0395 385.77 52.9595 386.35 52.9295 386.8C52.9232 387.002 52.8964 387.203 52.8495 387.4C52.8236 387.197 52.8236 386.992 52.8495 386.79C52.8495 386.34 52.8495 385.79 52.8495 385.05C52.8495 383.48 52.9095 381.31 52.9595 378.66C53.0195 373.2 53.0995 365.77 53.1995 357.56C53.2995 349.35 53.3895 341.85 53.5795 336.45C53.6795 333.75 53.7695 331.57 53.8595 330.06C53.8595 329.35 53.9495 328.78 53.9795 328.32C53.98 328.118 54.0035 327.916 54.0495 327.72Z" fill="#263238"/>
<path d="M692.999 339.21C693.139 339.21 693.239 341.75 693.299 345.86C693.359 349.97 693.369 355.66 693.299 361.94C693.229 368.22 693.219 373.94 693.159 378.02C693.159 380.02 693.089 381.66 693.059 382.9C693.068 383.495 693.034 384.09 692.959 384.68C692.877 384.09 692.844 383.495 692.859 382.9C692.859 381.66 692.859 380.02 692.789 378.02C692.789 373.91 692.789 368.22 692.789 361.94C692.879 350.11 692.999 341.92 692.999 339.21Z" fill="#263238"/>
</svg>
